<svg version="1.1" xmlns="http://www.w3.org/2000/svg" viewBox="0 0 1929.5 959.25" width="1929.5" height="959.25">
  <!-- svg-source:excalidraw -->
  
  <defs>
    <style class="style-fonts">
      @font-face {
        font-family: "Virgil";
        src: url("https://excalidraw.com/Virgil.woff2");
      }
      @font-face {
        font-family: "Cascadia";
        src: url("https://excalidraw.com/Cascadia.woff2");
      }
    </style>
    
  </defs>
  <rect x="0" y="0" width="1929.5" height="959.25" fill="#ffffff"></rect><g stroke-linecap="round" transform="translate(1702.5 689.75) rotate(0 90 120)"><path d="M0 0 C0 0, 0 0, 0 0 M0 0 C0 0, 0 0, 0 0 M-0.26 6.4 C2.1 4.72, 4.04 2.54, 4.99 0.36 M-0.26 6.4 C1.44 3.69, 3.65 1.88, 4.99 0.36 M0.13 12.04 C4.74 8.38, 7.12 4.45, 10.63 -0.03 M0.13 12.04 C3.53 7.95, 7.04 4.41, 10.63 -0.03 M-0.13 18.44 C3.59 12.37, 5.45 9.95, 15.62 0.33 M-0.13 18.44 C5.32 11.27, 10.9 5.99, 15.62 0.33 M0.27 24.08 C5.35 14.49, 13.81 9.76, 21.26 -0.07 M0.27 24.08 C8.41 13.86, 17.46 5.39, 21.26 -0.07 M0 30.48 C6.77 20.49, 17.17 11.76, 26.25 0.29 M0 30.48 C10.69 19.28, 19.64 7.2, 26.25 0.29 M-0.26 36.88 C13.6 20.88, 23.18 6.79, 31.89 -0.1 M-0.26 36.88 C9.12 25.83, 20.79 12.74, 31.89 -0.1 M0.14 42.52 C14.24 26.92, 25.65 13.72, 36.88 0.26 M0.14 42.52 C7.61 34.42, 14.72 23.96, 36.88 0.26 M-0.12 48.92 C8.77 36.87, 20.22 23.8, 42.52 -0.14 M-0.12 48.92 C15.65 30.91, 29.79 14.31, 42.52 -0.14 M0.27 54.56 C12.47 44.84, 23.02 31.5, 47.51 0.22 M0.27 54.56 C15.89 37.5, 29.95 19.02, 47.51 0.22 M0.01 60.96 C19.2 39.99, 33.45 22.66, 53.15 -0.17 M0.01 60.96 C13.69 45.88, 27.18 29.67, 53.15 -0.17 M-0.25 67.36 C16.02 48.47, 36.44 27.55, 58.14 0.19 M-0.25 67.36 C11.9 52.36, 25.37 37.8, 58.14 0.19 M0.14 73 C14.43 56.08, 27.41 40.48, 63.78 -0.21 M0.14 73 C23.51 46.96, 44.09 21.97, 63.78 -0.21 M-0.12 79.4 C19.51 54.85, 39.7 33.18, 68.77 0.15 M-0.12 79.4 C24.03 52.56, 47.05 25.11, 68.77 0.15 M0.28 85.04 C22.84 60.23, 43.06 35.94, 74.41 -0.24 M0.28 85.04 C20.57 63.23, 39.07 40.92, 74.41 -0.24 M0.01 91.44 C28.16 58.47, 57.12 25.72, 79.4 0.12 M0.01 91.44 C28.97 57.6, 58.77 24.6, 79.4 0.12 M-0.25 97.84 C33.04 58.24, 67.14 21.01, 85.04 -0.28 M-0.25 97.84 C31.56 61.02, 63.49 24.37, 85.04 -0.28 M0.15 103.48 C30.9 69.62, 60.74 32.89, 90.03 0.08 M0.15 103.48 C25.77 73.04, 51.64 44.65, 90.03 0.08 M-0.11 109.88 C34.17 70.05, 64.51 33.33, 95.67 -0.31 M-0.11 109.88 C36 68.52, 72.38 27.1, 95.67 -0.31 M0.28 115.52 C39.34 70.14, 78.16 26.08, 100.66 0.05 M0.28 115.52 C33.64 78.86, 65.4 40.17, 100.66 0.05 M0.02 121.92 C32.4 82.27, 67.68 46.7, 106.3 -0.34 M0.02 121.92 C34.24 83.61, 68.24 44.88, 106.3 -0.34 M-0.24 128.32 C43.3 77.57, 89.85 25.06, 111.29 0.02 M-0.24 128.32 C26.1 97.52, 53.15 67.88, 111.29 0.02 M0.15 133.96 C28.48 102.17, 54.55 71.54, 116.27 0.38 M0.15 133.96 C37.41 91.14, 75.07 48.01, 116.27 0.38 M-0.11 140.36 C31.38 100.61, 67.57 60.33, 121.92 -0.02 M-0.11 140.36 C25.45 109.93, 49.72 81.75, 121.92 -0.02 M0.29 146 C42.05 95.19, 86.3 46.74, 126.91 0.34 M0.29 146 C44.11 99.09, 84.07 51.48, 126.91 0.34 M0.02 152.4 C39.67 106.92, 79.06 58.67, 132.55 -0.05 M0.02 152.4 C48.02 96.7, 96.64 40.9, 132.55 -0.05 M-0.24 158.8 C35.42 118.98, 70.25 78.93, 137.54 0.31 M-0.24 158.8 C41.99 110.99, 85.81 62.29, 137.54 0.31 M0.16 164.44 C53.04 103.19, 109.57 37.93, 143.18 -0.09 M0.16 164.44 C35.54 124.04, 71.48 83.03, 143.18 -0.09 M-0.1 170.84 C46.77 117.29, 89.86 64.12, 148.17 0.27 M-0.1 170.84 C37.04 129.05, 73.54 87.12, 148.17 0.27 M0.29 176.48 C61.42 108.34, 119.92 41.06, 153.81 -0.12 M0.29 176.48 C52.03 117.38, 103.28 59.12, 153.81 -0.12 M0.03 182.88 C33.78 141.42, 69.58 102.1, 158.8 0.24 M0.03 182.88 C60.35 111.05, 122.15 39.87, 158.8 0.24 M-0.23 189.27 C31.3 151.86, 67.64 112.04, 164.44 -0.16 M-0.23 189.27 C54.18 128.62, 107.13 67.66, 164.44 -0.16 M0.16 194.92 C34.69 154.58, 70.34 114.35, 169.43 0.2 M0.16 194.92 C63.54 125.12, 124.99 52.3, 169.43 0.2 M-0.1 201.32 C54.32 139.47, 106.94 79.22, 175.07 -0.19 M-0.1 201.32 C45.33 150.07, 90.35 98.52, 175.07 -0.19 M0.3 206.96 C51.08 147.95, 99.9 91.44, 180.06 0.17 M0.3 206.96 C53.32 145.41, 107.41 82.76, 180.06 0.17 M0.03 213.36 C66.55 138.94, 131.15 60.23, 179.79 6.57 M0.03 213.36 C69.92 131.08, 140.26 48.5, 179.79 6.57 M-0.23 219.75 C61.79 150.22, 124.05 80.35, 180.19 12.21 M-0.23 219.75 C48.43 162.79, 99.61 104.1, 180.19 12.21 M0.17 225.4 C41.76 174.39, 85.54 123.91, 179.93 18.61 M0.17 225.4 C59.74 155.5, 120.67 85.15, 179.93 18.61 M-0.09 231.8 C50.94 170.55, 104.68 111.2, 180.32 24.25 M-0.09 231.8 C49.49 174.21, 98.59 117.49, 180.32 24.25 M0.3 237.44 C39.84 192.69, 78.68 150.61, 180.06 30.65 M0.3 237.44 C55.48 173.44, 109.13 111.11, 180.06 30.65 M3.32 240.06 C61.48 174.63, 119.92 105.62, 179.8 37.05 M3.32 240.06 C46.36 194.04, 86.93 146.3, 179.8 37.05 M8.31 240.42 C64.15 179.13, 116.8 115.39, 180.19 42.69 M8.31 240.42 C50.94 191.15, 93.52 141.95, 180.19 42.69 M13.95 240.03 C57.34 191.01, 98 142.2, 179.93 49.09 M13.95 240.03 C81.15 164.92, 145.8 90.14, 179.93 49.09 M18.94 240.39 C54.12 199.65, 88.23 158.57, 180.33 54.73 M18.94 240.39 C74.99 174.21, 132.76 108.68, 180.33 54.73 M24.58 239.99 C76.61 177.46, 129.9 117.94, 180.07 61.13 M24.58 239.99 C81.56 174.6, 137.83 110.35, 180.07 61.13 M29.57 240.35 C83.52 178.51, 135.04 118.82, 179.8 67.53 M29.57 240.35 C81.98 182.97, 132.14 123.2, 179.8 67.53 M34.55 240.71 C75.78 194.25, 117.87 147.83, 180.2 73.17 M34.55 240.71 C69.18 201.66, 101.67 164.17, 180.2 73.17 M40.2 240.32 C93.63 176.56, 147.37 115.5, 179.94 79.57 M40.2 240.32 C89.57 186.26, 137.17 129.8, 179.94 79.57 M45.18 240.68 C77.94 200.37, 114.19 163.56, 180.33 85.21 M45.18 240.68 C81.13 200.6, 116.03 158.85, 180.33 85.21 M50.83 240.28 C93.8 191.61, 135.56 144, 180.07 91.61 M50.83 240.28 C83.35 204.66, 112.21 169.8, 180.07 91.61 M55.81 240.64 C81.81 210.73, 108.01 178.59, 179.81 98 M55.81 240.64 C83.2 208.64, 110.6 175.09, 179.81 98 M61.46 240.25 C87.2 210.07, 112.89 178.07, 180.2 103.65 M61.46 240.25 C99.62 196.94, 137.86 152.43, 180.2 103.65 M66.44 240.61 C93.66 209.05, 123.85 175.07, 179.94 110.05 M66.44 240.61 C94.16 212.31, 119.88 181.97, 179.94 110.05 M72.09 240.22 C102.83 202.9, 136.97 163.91, 180.34 115.69 M72.09 240.22 C97.34 211.09, 121.73 182.14, 180.34 115.69 M77.07 240.58 C99.72 213.7, 120.01 185.57, 180.07 122.09 M77.07 240.58 C105.87 205.83, 136.14 169.6, 180.07 122.09 M82.72 240.18 C102.04 218.11, 119.94 196.02, 179.81 128.48 M82.72 240.18 C105.56 215.22, 127.85 189.74, 179.81 128.48 M87.7 240.54 C114.9 209.54, 141.27 181.78, 180.21 134.13 M87.7 240.54 C105.84 219.09, 126.37 195.98, 180.21 134.13 M93.35 240.15 C121.45 211.88, 146.27 179.92, 179.95 140.52 M93.35 240.15 C119.28 210.93, 145.59 179.35, 179.95 140.52 M98.33 240.51 C130.28 202.62, 162.17 166.57, 180.34 146.17 M98.33 240.51 C117.42 218.27, 137.09 196.47, 180.34 146.17 M103.98 240.11 C123.45 215.73, 144.54 193.32, 180.08 152.57 M103.98 240.11 C125.99 213.85, 147.27 190.56, 180.08 152.57 M108.96 240.47 C138.85 208.51, 166.28 174.04, 179.82 158.96 M108.96 240.47 C126.45 222.37, 141.33 203.46, 179.82 158.96 M114.61 240.08 C131.47 218.85, 152.52 199.84, 180.21 164.61 M114.61 240.08 C134.45 215.63, 155.32 191.79, 180.21 164.61 M119.59 240.44 C139.3 216.61, 162.94 193.2, 179.95 171 M119.59 240.44 C138.87 219.08, 157.52 197.13, 179.95 171 M125.24 240.04 C143.81 217.27, 163.52 195.65, 180.35 176.65 M125.24 240.04 C144.72 217.95, 165.23 194.05, 180.35 176.65 M130.22 240.4 C148.61 218.17, 166.78 195.62, 180.08 183.05 M130.22 240.4 C141.42 229.07, 149.61 217.98, 180.08 183.05 M135.87 240.01 C147.61 228.01, 159.95 215.64, 179.82 189.44 M135.87 240.01 C153.13 222.53, 167.7 203.83, 179.82 189.44 M140.85 240.37 C150.14 228.96, 158.27 221.15, 180.22 195.09 M140.85 240.37 C151.55 228.84, 162.92 215.76, 180.22 195.09 M145.84 240.73 C155.88 231.81, 164.32 220.33, 179.96 201.48 M145.84 240.73 C154.65 232.15, 163.35 222.59, 179.96 201.48 M151.48 240.33 C159.26 230.41, 170.03 218.5, 180.35 207.13 M151.48 240.33 C159.58 231.1, 168.98 220.27, 180.35 207.13 M156.47 240.69 C161.58 234.19, 167.83 228.77, 180.09 213.52 M156.47 240.69 C162.19 233.59, 169.1 226.03, 180.09 213.52 M162.11 240.3 C167.32 234.39, 170.61 227.82, 179.83 219.92 M162.11 240.3 C168.46 233.88, 174.16 226.16, 179.83 219.92 M167.1 240.66 C172.47 234.73, 176.15 229.96, 180.22 225.57 M167.1 240.66 C172.53 234.79, 176.04 231.03, 180.22 225.57 M172.74 240.27 C173.67 238.16, 176.74 235.17, 179.96 231.96 M172.74 240.27 C175.09 237.51, 178.36 233.4, 179.96 231.96 M177.73 240.63 C178.6 239.23, 179.93 238.33, 180.36 237.61 M177.73 240.63 C178.63 239.75, 179.25 238.85, 180.36 237.61" stroke="#ced4da" stroke-width="0.5" fill="none"></path><path d="M0 0 C45.98 -1.26, 95.1 1.9, 180 0 M0 0 C71.17 0.13, 141.99 -0.39, 180 0 M180 0 C178.84 72.66, 180.28 142.56, 180 240 M180 0 C179.65 75.86, 179.49 153.27, 180 240 M180 240 C116.89 240.87, 50.98 240.37, 0 240 M180 240 C132.87 240.3, 87.12 241.21, 0 240 M0 240 C0 190.23, -2.08 138.99, 0 0 M0 240 C-0.63 166.88, -1.2 95.96, 0 0" stroke="#000000" stroke-width="1" fill="none"></path></g><g stroke-linecap="round" transform="translate(1711.5 700.75) rotate(0 80 100)"><path d="M-0.43 1.99 L160.65 0.8 L159.13 198.52 L0.72 198.76" stroke="none" stroke-width="0" fill="#fff"></path><path d="M0 0 C42.5 2.76, 85.28 2.02, 160 0 M0 0 C47.9 -0.57, 95.09 -0.64, 160 0 M160 0 C161.21 54.74, 160.17 111.17, 160 200 M160 0 C161.95 48.87, 161.96 97.4, 160 200 M160 200 C111.41 200.76, 60.17 200.35, 0 200 M160 200 C104.14 199.26, 46.51 199.53, 0 200 M0 200 C-2.24 150.52, -1.16 102.85, 0 0 M0 200 C-0.9 157.44, -0.91 113.45, 0 0" stroke="#000000" stroke-width="1" fill="none"></path></g><g stroke-linecap="round" transform="translate(1782.5 909.75) rotate(0 10 10)"><path d="M10.52 0.01 C12.58 0, 15.1 1.27, 16.69 2.74 C18.27 4.2, 19.73 6.67, 20.03 8.78 C20.33 10.9, 19.65 13.62, 18.52 15.43 C17.38 17.25, 15.23 18.98, 13.21 19.65 C11.19 20.32, 8.36 20.24, 6.38 19.44 C4.4 18.63, 2.37 16.78, 1.32 14.83 C0.27 12.88, -0.33 9.84, 0.09 7.74 C0.5 5.63, 2.07 3.48, 3.81 2.2 C5.56 0.91, 9.43 0.31, 10.56 0 C11.69 -0.32, 10.62 0.15, 10.6 0.31 M10.53 0.09 C12.53 0.2, 15.26 1.62, 16.8 3.08 C18.34 4.55, 19.47 6.84, 19.76 8.89 C20.05 10.94, 19.71 13.65, 18.52 15.4 C17.34 17.14, 14.83 18.75, 12.66 19.37 C10.5 19.99, 7.47 19.93, 5.55 19.12 C3.63 18.31, 2.03 16.46, 1.14 14.52 C0.25 12.57, -0.25 9.58, 0.23 7.47 C0.7 5.35, 2.2 3.05, 3.98 1.82 C5.77 0.59, 9.8 0.41, 10.94 0.1 C12.08 -0.21, 10.9 -0.16, 10.82 -0.06" stroke="none" stroke-width="0" fill="#fff"></path><path d="M10.24 0.07 C12.27 -0.02, 14.92 1.09, 16.51 2.48 C18.1 3.88, 19.45 6.31, 19.78 8.45 C20.12 10.58, 19.6 13.47, 18.53 15.29 C17.46 17.1, 15.38 18.67, 13.36 19.33 C11.34 19.98, 8.45 19.94, 6.41 19.22 C4.37 18.49, 2.19 16.8, 1.12 14.96 C0.05 13.12, -0.43 10.27, 0.01 8.16 C0.45 6.06, 2.04 3.68, 3.75 2.32 C5.46 0.96, 9.13 0.36, 10.27 0.02 C11.42 -0.31, 10.62 0.11, 10.64 0.28 M9.45 -0.18 C11.51 -0.41, 14.57 0.8, 16.24 2.17 C17.92 3.54, 19.09 5.92, 19.5 8.03 C19.91 10.14, 19.63 13, 18.69 14.84 C17.76 16.68, 15.86 18.29, 13.89 19.07 C11.92 19.86, 8.92 20.2, 6.88 19.53 C4.85 18.87, 2.8 16.95, 1.69 15.1 C0.57 13.25, -0.06 10.45, 0.19 8.42 C0.43 6.39, 1.61 4.29, 3.16 2.91 C4.71 1.52, 8.42 0.53, 9.48 0.13 C10.55 -0.27, 9.5 0.34, 9.54 0.51" stroke="#000000" stroke-width="1" fill="none"></path></g><g stroke-linecap="round" transform="translate(10 150) rotate(0 94 40)"><path d="M20 0 C57.92 0, 95.83 0, 168 0 M20 0 C51.25 0, 82.51 0, 168 0 M168 0 C181.33 0, 188 6.67, 188 20 M168 0 C181.33 0, 188 6.67, 188 20 M188 20 C188 28.71, 188 37.42, 188 60 M188 20 C188 28.91, 188 37.82, 188 60 M188 60 C188 73.33, 181.33 80, 168 80 M188 60 C188 73.33, 181.33 80, 168 80 M168 80 C137.47 80, 106.93 80, 20 80 M168 80 C133.34 80, 98.68 80, 20 80 M20 80 C6.67 80, 0 73.33, 0 60 M20 80 C6.67 80, 0 73.33, 0 60 M0 60 C0 48.94, 0 37.88, 0 20 M0 60 C0 46.51, 0 33.03, 0 20 M0 20 C0 6.67, 6.67 0, 20 0 M0 20 C0 6.67, 6.67 0, 20 0" stroke="#1e1e1e" stroke-width="1" fill="none"></path></g><g transform="translate(39.546875 178) rotate(0 64.453125 12)"><text x="0" y="0" font-family="Cascadia, Segoe UI Emoji" font-size="20px" fill="#1e1e1e" text-anchor="start" style="white-space: pre;" direction="ltr" dominant-baseline="text-before-edge">epinio push</text></g><g stroke-linecap="round"><g transform="translate(99.82423444066796 51.57090083529641) rotate(0 -0.030655192908739082 42.30525025219961)" fill-rule="evenodd"><path d="M0 0 C-5.68 2.72, -27.24 7.78, -34.1 16.31 C-40.95 24.84, -43.88 40.43, -41.13 51.19 C-38.38 61.95, -28.09 75.94, -17.58 80.86 C-7.06 85.77, 12.13 86.01, 21.97 80.68 C31.81 75.36, 39.52 59.95, 41.48 48.93 C43.44 37.91, 40.66 22.73, 33.75 14.58 C26.83 6.42, 5.62 2.43, 0 0" stroke="none" stroke-width="0" fill="#326ce5" fill-rule="evenodd"></path><path d="M0 0 C-5.68 2.72, -27.24 7.78, -34.1 16.31 C-40.95 24.84, -43.88 40.43, -41.13 51.19 C-38.38 61.95, -28.09 75.94, -17.58 80.86 C-7.06 85.77, 12.13 86.01, 21.97 80.68 C31.81 75.36, 39.52 59.95, 41.48 48.93 C43.44 37.91, 40.66 22.73, 33.75 14.58 C26.83 6.42, 5.62 2.43, 0 0 M0 0 C-5.68 2.72, -27.24 7.78, -34.1 16.31 C-40.95 24.84, -43.88 40.43, -41.13 51.19 C-38.38 61.95, -28.09 75.94, -17.58 80.86 C-7.06 85.77, 12.13 86.01, 21.97 80.68 C31.81 75.36, 39.52 59.95, 41.48 48.93 C43.44 37.91, 40.66 22.73, 33.75 14.58 C26.83 6.42, 5.62 2.43, 0 0" stroke="#000000" stroke-width="1" fill="none"></path></g></g><mask></mask><g transform="translate(83.6118475042664 110.95431620418958) rotate(0 18.75 9.599999999999994)"><text x="18.75" y="0" font-family="Cascadia, Segoe UI Emoji" font-size="16px" fill="#fff" text-anchor="middle" style="white-space: pre;" direction="ltr" dominant-baseline="text-before-edge">User</text></g><g stroke-linecap="round" transform="translate(78.67675681116236 68.70852651594208) rotate(0 21.503246000620265 18.81534025054283)"><path d="M9.41 0 C15.67 0, 21.94 0, 33.6 0 C39.87 0, 43.01 3.14, 43.01 9.41 C43.01 13.84, 43.01 18.27, 43.01 28.22 C43.01 34.49, 39.87 37.63, 33.6 37.63 C25.8 37.63, 18.01 37.63, 9.41 37.63 C3.14 37.63, 0 34.49, 0 28.22 C0 21.14, 0 14.06, 0 9.41 C0 3.14, 3.14 0, 9.41 0" stroke="none" stroke-width="0" fill="#fff"></path><path d="M9.41 0 C17.6 0, 25.79 0, 33.6 0 M9.41 0 C14.62 0, 19.83 0, 33.6 0 M33.6 0 C39.87 0, 43.01 3.14, 43.01 9.41 M33.6 0 C39.87 0, 43.01 3.14, 43.01 9.41 M43.01 9.41 C43.01 16.92, 43.01 24.43, 43.01 28.22 M43.01 9.41 C43.01 14.14, 43.01 18.88, 43.01 28.22 M43.01 28.22 C43.01 34.49, 39.87 37.63, 33.6 37.63 M43.01 28.22 C43.01 34.49, 39.87 37.63, 33.6 37.63 M33.6 37.63 C27.01 37.63, 20.42 37.63, 9.41 37.63 M33.6 37.63 C27.85 37.63, 22.11 37.63, 9.41 37.63 M9.41 37.63 C3.14 37.63, 0 34.49, 0 28.22 M9.41 37.63 C3.14 37.63, 0 34.49, 0 28.22 M0 28.22 C0 21.46, 0 14.7, 0 9.41 M0 28.22 C0 23.06, 0 17.89, 0 9.41 M0 9.41 C0 3.14, 3.14 0, 9.41 0 M0 9.41 C0 3.14, 3.14 0, 9.41 0" stroke="#fff" stroke-width="1" fill="none"></path></g><g stroke-linecap="round"><g transform="translate(91.77565468192176 98.10576303497396) rotate(0 7.847781228731151 -6.624718454551953)" fill-rule="evenodd"><path d="M4.39 -12.08 C4.39 -12.08, 4.39 -12.08, 4.39 -12.08 M4.39 -12.08 C4.39 -12.08, 4.39 -12.08, 4.39 -12.08 M4.52 -0.04 C6.44 -2.25, 8.36 -4.46, 13.05 -9.85 M4.52 -0.04 C7.53 -3.51, 10.54 -6.97, 13.05 -9.85 M0 0 C0 0, 0 0, 0 0 M0 0 C0 0, 0 0, 0 0 M12.04 -0.13 C9.65 -2.21, 7.26 -4.29, 1.47 -9.32 M12.04 -0.13 C9.51 -2.33, 6.98 -4.54, 1.47 -9.32 M12.76 -10.11 C11.93 -10.83, 11.09 -11.56, 9.74 -12.73 M12.76 -10.11 C11.66 -11.06, 10.56 -12.02, 9.74 -12.73" stroke="#326ce5" stroke-width="1" fill="none"></path><path d="M0 0 C0.28 -1.47, 0.48 -6.61, 1.68 -8.84 C2.88 -11.06, 5.35 -13.17, 7.19 -13.34 C9.03 -13.5, 11.4 -11.87, 12.7 -9.8 C14 -7.73, 17.09 -2.55, 14.98 -0.92 C12.86 0.72, 2.5 -0.15, 0 0 M0 0 C0.28 -1.47, 0.48 -6.61, 1.68 -8.84 C2.88 -11.06, 5.35 -13.17, 7.19 -13.34 C9.03 -13.5, 11.4 -11.87, 12.7 -9.8 C14 -7.73, 17.09 -2.55, 14.98 -0.92 C12.86 0.72, 2.5 -0.15, 0 0" stroke="#326ce5" stroke-width="2" fill="none"></path></g></g><mask></mask><g stroke-linecap="round" transform="translate(95.56096052200144 77.83527717698206) rotate(0 3.8336639329908166 3.3544559413669646)"><path d="M1.1 0.96 C1.1 0.96, 1.1 0.96, 1.1 0.96 M1.1 0.96 C1.1 0.96, 1.1 0.96, 1.1 0.96 M1.43 5.98 C1.43 5.98, 1.43 5.98, 1.43 5.98 M1.43 5.98 C1.43 5.98, 1.43 5.98, 1.43 5.98" stroke="#326ce5" stroke-width="1" fill="none"></path><path d="M7.67 3.35 C7.67 3.55, 7.65 3.75, 7.61 3.94 C7.57 4.13, 7.51 4.32, 7.44 4.5 C7.36 4.68, 7.26 4.86, 7.15 5.03 C7.04 5.2, 6.91 5.36, 6.77 5.51 C6.63 5.66, 6.47 5.8, 6.3 5.92 C6.13 6.05, 5.94 6.16, 5.75 6.26 C5.56 6.36, 5.35 6.44, 5.14 6.51 C4.94 6.57, 4.72 6.62, 4.5 6.66 C4.28 6.69, 4.06 6.71, 3.83 6.71 C3.61 6.71, 3.39 6.69, 3.17 6.66 C2.95 6.62, 2.73 6.57, 2.52 6.51 C2.31 6.44, 2.11 6.36, 1.92 6.26 C1.72 6.16, 1.54 6.05, 1.37 5.92 C1.2 5.8, 1.04 5.66, 0.9 5.51 C0.75 5.36, 0.62 5.2, 0.51 5.03 C0.4 4.86, 0.31 4.68, 0.23 4.5 C0.16 4.32, 0.1 4.13, 0.06 3.94 C0.02 3.75, 0 3.55, 0 3.35 C0 3.16, 0.02 2.96, 0.06 2.77 C0.1 2.58, 0.16 2.39, 0.23 2.21 C0.31 2.02, 0.4 1.85, 0.51 1.68 C0.62 1.51, 0.75 1.35, 0.9 1.2 C1.04 1.05, 1.2 0.91, 1.37 0.78 C1.54 0.66, 1.72 0.55, 1.92 0.45 C2.11 0.35, 2.31 0.27, 2.52 0.2 C2.73 0.14, 2.95 0.08, 3.17 0.05 C3.39 0.02, 3.61 0, 3.83 0 C4.06 0, 4.28 0.02, 4.5 0.05 C4.72 0.08, 4.94 0.14, 5.14 0.2 C5.35 0.27, 5.56 0.35, 5.75 0.45 C5.94 0.55, 6.13 0.66, 6.3 0.78 C6.47 0.91, 6.63 1.05, 6.77 1.2 C6.91 1.35, 7.04 1.51, 7.15 1.68 C7.26 1.85, 7.36 2.02, 7.44 2.21 C7.51 2.39, 7.57 2.58, 7.61 2.77 C7.65 2.96, 7.66 3.26, 7.67 3.35 C7.68 3.45, 7.68 3.26, 7.67 3.35" stroke="#326ce5" stroke-width="2" fill="none"></path></g><g transform="translate(499.40625 167) rotate(0 58.59375 12)"><text x="0" y="0" font-family="Cascadia, Segoe UI Emoji" font-size="20px" fill="#1e1e1e" text-anchor="start" style="white-space: pre;" direction="ltr" dominant-baseline="text-before-edge">Epinio API</text></g><g transform="translate(522.84375 228.5) rotate(0 35.15625 12)"><text x="0" y="0" font-family="Cascadia, Segoe UI Emoji" font-size="20px" fill="#1e1e1e" text-anchor="start" style="white-space: pre;" direction="ltr" dominant-baseline="text-before-edge">upload</text></g><g stroke-linecap="round" transform="translate(500 219) rotate(0 58 21.5)"><path d="M10.75 0 C30.22 0, 49.7 0, 105.25 0 M10.75 0 C33.17 0, 55.6 0, 105.25 0 M105.25 0 C112.42 0, 116 3.58, 116 10.75 M105.25 0 C112.42 0, 116 3.58, 116 10.75 M116 10.75 C116 19.09, 116 27.43, 116 32.25 M116 10.75 C116 15.93, 116 21.11, 116 32.25 M116 32.25 C116 39.42, 112.42 43, 105.25 43 M116 32.25 C116 39.42, 112.42 43, 105.25 43 M105.25 43 C71.09 43, 36.94 43, 10.75 43 M105.25 43 C76.55 43, 47.85 43, 10.75 43 M10.75 43 C3.58 43, 0 39.42, 0 32.25 M10.75 43 C3.58 43, 0 39.42, 0 32.25 M0 32.25 C0 26.77, 0 21.29, 0 10.75 M0 32.25 C0 24.31, 0 16.36, 0 10.75 M0 10.75 C0 3.58, 3.58 0, 10.75 0 M0 10.75 C0 3.58, 3.58 0, 10.75 0" stroke="#1e1e1e" stroke-width="1" fill="none"></path></g><g transform="translate(528.703125 287.5) rotate(0 29.296875 12)"><text x="0" y="0" font-family="Cascadia, Segoe UI Emoji" font-size="20px" fill="#1e1e1e" text-anchor="start" style="white-space: pre;" direction="ltr" dominant-baseline="text-before-edge">stage</text></g><g stroke-linecap="round" transform="translate(500 278) rotate(0 58 21.5)"><path d="M10.75 0 C32.47 0, 54.19 0, 105.25 0 M10.75 0 C42.89 0, 75.03 0, 105.25 0 M105.25 0 C112.42 0, 116 3.58, 116 10.75 M105.25 0 C112.42 0, 116 3.58, 116 10.75 M116 10.75 C116 16.85, 116 22.95, 116 32.25 M116 10.75 C116 17.21, 116 23.68, 116 32.25 M116 32.25 C116 39.42, 112.42 43, 105.25 43 M116 32.25 C116 39.42, 112.42 43, 105.25 43 M105.25 43 C73.86 43, 42.47 43, 10.75 43 M105.25 43 C79.7 43, 54.16 43, 10.75 43 M10.75 43 C3.58 43, 0 39.42, 0 32.25 M10.75 43 C3.58 43, 0 39.42, 0 32.25 M0 32.25 C0 27.3, 0 22.35, 0 10.75 M0 32.25 C0 24.2, 0 16.14, 0 10.75 M0 10.75 C0 3.58, 3.58 0, 10.75 0 M0 10.75 C0 3.58, 3.58 0, 10.75 0" stroke="#1e1e1e" stroke-width="1" fill="none"></path></g><g transform="translate(522.84375 351.5) rotate(0 35.15625 12)"><text x="0" y="0" font-family="Cascadia, Segoe UI Emoji" font-size="20px" fill="#1e1e1e" text-anchor="start" style="white-space: pre;" direction="ltr" dominant-baseline="text-before-edge">deploy</text></g><g stroke-linecap="round" transform="translate(500 342) rotate(0 58 21.5)"><path d="M10.75 0 C31.28 0, 51.81 0, 105.25 0 M10.75 0 C41.44 0, 72.12 0, 105.25 0 M105.25 0 C112.42 0, 116 3.58, 116 10.75 M105.25 0 C112.42 0, 116 3.58, 116 10.75 M116 10.75 C116 16.31, 116 21.87, 116 32.25 M116 10.75 C116 18.06, 116 25.38, 116 32.25 M116 32.25 C116 39.42, 112.42 43, 105.25 43 M116 32.25 C116 39.42, 112.42 43, 105.25 43 M105.25 43 C69.41 43, 33.58 43, 10.75 43 M105.25 43 C75.31 43, 45.36 43, 10.75 43 M10.75 43 C3.58 43, 0 39.42, 0 32.25 M10.75 43 C3.58 43, 0 39.42, 0 32.25 M0 32.25 C0 24.77, 0 17.29, 0 10.75 M0 32.25 C0 24.64, 0 17.02, 0 10.75 M0 10.75 C0 3.58, 3.58 0, 10.75 0 M0 10.75 C0 3.58, 3.58 0, 10.75 0" stroke="#1e1e1e" stroke-width="1" fill="none"></path></g><g stroke-linecap="round" transform="translate(458 145) rotate(0 100 135.5)"><path d="M32 0 C82.04 0, 132.08 0, 168 0 M32 0 C61.74 0, 91.47 0, 168 0 M168 0 C189.33 0, 200 10.67, 200 32 M168 0 C189.33 0, 200 10.67, 200 32 M200 32 C200 110.47, 200 188.95, 200 239 M200 32 C200 103.67, 200 175.33, 200 239 M200 239 C200 260.33, 189.33 271, 168 271 M200 239 C200 260.33, 189.33 271, 168 271 M168 271 C118.46 271, 68.92 271, 32 271 M168 271 C136.91 271, 105.83 271, 32 271 M32 271 C10.67 271, 0 260.33, 0 239 M32 271 C10.67 271, 0 260.33, 0 239 M0 239 C0 170.06, 0 101.11, 0 32 M0 239 C0 167, 0 95, 0 32 M0 32 C0 10.67, 10.67 0, 32 0 M0 32 C0 10.67, 10.67 0, 32 0" stroke="#1e1e1e" stroke-width="1" fill="none"></path></g><g transform="translate(906.40625 283.5) rotate(0 64.453125 12)"><text x="0" y="0" font-family="Cascadia, Segoe UI Emoji" font-size="20px" fill="#1e1e1e" text-anchor="start" style="white-space: pre;" direction="ltr" dominant-baseline="text-before-edge">Staging Job</text></g><g transform="translate(925.421875 338) rotate(0 46.875 12)"><text x="0" y="0" font-family="Cascadia, Segoe UI Emoji" font-size="20px" fill="#1e1e1e" text-anchor="start" style="white-space: pre;" direction="ltr" dominant-baseline="text-before-edge">download</text></g><g stroke-linecap="round" transform="translate(914.296875 328.5) rotate(0 58 21.5)"><path d="M10.75 0 C39.02 0, 67.29 0, 105.25 0 M10.75 0 C36.32 0, 61.89 0, 105.25 0 M105.25 0 C112.42 0, 116 3.58, 116 10.75 M105.25 0 C112.42 0, 116 3.58, 116 10.75 M116 10.75 C116 19.05, 116 27.34, 116 32.25 M116 10.75 C116 16.25, 116 21.75, 116 32.25 M116 32.25 C116 39.42, 112.42 43, 105.25 43 M116 32.25 C116 39.42, 112.42 43, 105.25 43 M105.25 43 C70.88 43, 36.5 43, 10.75 43 M105.25 43 C80.6 43, 55.95 43, 10.75 43 M10.75 43 C3.58 43, 0 39.42, 0 32.25 M10.75 43 C3.58 43, 0 39.42, 0 32.25 M0 32.25 C0 25.46, 0 18.68, 0 10.75 M0 32.25 C0 27.1, 0 21.95, 0 10.75 M0 10.75 C0 3.58, 3.58 0, 10.75 0 M0 10.75 C0 3.58, 3.58 0, 10.75 0" stroke="#1e1e1e" stroke-width="1" fill="none"></path></g><g transform="translate(936.84375 397) rotate(0 35.15625 12)"><text x="0" y="0" font-family="Cascadia, Segoe UI Emoji" font-size="20px" fill="#1e1e1e" text-anchor="start" style="white-space: pre;" direction="ltr" dominant-baseline="text-before-edge">unpack</text></g><g stroke-linecap="round" transform="translate(914 387.5) rotate(0 58 21.5)"><path d="M10.75 0 C45.62 0, 80.48 0, 105.25 0 M10.75 0 C40.88 0, 71.01 0, 105.25 0 M105.25 0 C112.42 0, 116 3.58, 116 10.75 M105.25 0 C112.42 0, 116 3.58, 116 10.75 M116 10.75 C116 19.05, 116 27.35, 116 32.25 M116 10.75 C116 15.25, 116 19.76, 116 32.25 M116 32.25 C116 39.42, 112.42 43, 105.25 43 M116 32.25 C116 39.42, 112.42 43, 105.25 43 M105.25 43 C81.42 43, 57.58 43, 10.75 43 M105.25 43 C81.16 43, 57.07 43, 10.75 43 M10.75 43 C3.58 43, 0 39.42, 0 32.25 M10.75 43 C3.58 43, 0 39.42, 0 32.25 M0 32.25 C0 24.34, 0 16.42, 0 10.75 M0 32.25 C0 24.43, 0 16.61, 0 10.75 M0 10.75 C0 3.58, 3.58 0, 10.75 0 M0 10.75 C0 3.58, 3.58 0, 10.75 0" stroke="#1e1e1e" stroke-width="1" fill="none"></path></g><g transform="translate(942.703125 461) rotate(0 29.296875 12)"><text x="0" y="0" font-family="Cascadia, Segoe UI Emoji" font-size="20px" fill="#1e1e1e" text-anchor="start" style="white-space: pre;" direction="ltr" dominant-baseline="text-before-edge">build</text></g><g stroke-linecap="round" transform="translate(914 451.5) rotate(0 58 21.5)"><path d="M10.75 0 C33.48 0, 56.22 0, 105.25 0 M10.75 0 C46.51 0, 82.27 0, 105.25 0 M105.25 0 C112.42 0, 116 3.58, 116 10.75 M105.25 0 C112.42 0, 116 3.58, 116 10.75 M116 10.75 C116 19.17, 116 27.59, 116 32.25 M116 10.75 C116 15.1, 116 19.44, 116 32.25 M116 32.25 C116 39.42, 112.42 43, 105.25 43 M116 32.25 C116 39.42, 112.42 43, 105.25 43 M105.25 43 C73.56 43, 41.86 43, 10.75 43 M105.25 43 C80.54 43, 55.83 43, 10.75 43 M10.75 43 C3.58 43, 0 39.42, 0 32.25 M10.75 43 C3.58 43, 0 39.42, 0 32.25 M0 32.25 C0 26.29, 0 20.32, 0 10.75 M0 32.25 C0 25.11, 0 17.98, 0 10.75 M0 10.75 C0 3.58, 3.58 0, 10.75 0 M0 10.75 C0 3.58, 3.58 0, 10.75 0" stroke="#1e1e1e" stroke-width="1" fill="none"></path></g><g stroke-linecap="round" transform="translate(872 254.5) rotate(0 100 135.5)"><path d="M32 0 C83.5 0, 135 0, 168 0 M32 0 C68.71 0, 105.42 0, 168 0 M168 0 C189.33 0, 200 10.67, 200 32 M168 0 C189.33 0, 200 10.67, 200 32 M200 32 C200 77.33, 200 122.65, 200 239 M200 32 C200 99.69, 200 167.38, 200 239 M200 239 C200 260.33, 189.33 271, 168 271 M200 239 C200 260.33, 189.33 271, 168 271 M168 271 C114.27 271, 60.53 271, 32 271 M168 271 C128.81 271, 89.62 271, 32 271 M32 271 C10.67 271, 0 260.33, 0 239 M32 271 C10.67 271, 0 260.33, 0 239 M0 239 C0 172.21, 0 105.41, 0 32 M0 239 C0 191.46, 0 143.92, 0 32 M0 32 C0 10.67, 10.67 0, 32 0 M0 32 C0 10.67, 10.67 0, 32 0" stroke="#1e1e1e" stroke-width="1" fill="none"></path></g><g transform="translate(523.453125 586) rotate(0 123.046875 12)"><text x="0" y="0" font-family="Cascadia, Segoe UI Emoji" font-size="20px" fill="#1e1e1e" text-anchor="start" style="white-space: pre;" direction="ltr" dominant-baseline="text-before-edge">App runtime resources</text></g><g transform="translate(564.46875 644) rotate(0 82.03125 12)"><text x="0" y="0" font-family="Cascadia, Segoe UI Emoji" font-size="20px" fill="#1e1e1e" text-anchor="start" style="white-space: pre;" direction="ltr" dominant-baseline="text-before-edge">K8s Deployment</text></g><g stroke-linecap="round" transform="translate(549 636) rotate(0 99 22.5)"><path d="M11.25 0 C49.54 0, 87.83 0, 186.75 0 M11.25 0 C78.09 0, 144.92 0, 186.75 0 M186.75 0 C194.25 0, 198 3.75, 198 11.25 M186.75 0 C194.25 0, 198 3.75, 198 11.25 M198 11.25 C198 19.74, 198 28.22, 198 33.75 M198 11.25 C198 16.97, 198 22.69, 198 33.75 M198 33.75 C198 41.25, 194.25 45, 186.75 45 M198 33.75 C198 41.25, 194.25 45, 186.75 45 M186.75 45 C120.11 45, 53.47 45, 11.25 45 M186.75 45 C128.53 45, 70.31 45, 11.25 45 M11.25 45 C3.75 45, 0 41.25, 0 33.75 M11.25 45 C3.75 45, 0 41.25, 0 33.75 M0 33.75 C0 28.93, 0 24.12, 0 11.25 M0 33.75 C0 26.97, 0 20.2, 0 11.25 M0 11.25 C0 3.75, 3.75 0, 11.25 0 M0 11.25 C0 3.75, 3.75 0, 11.25 0" stroke="#1e1e1e" stroke-width="1" fill="none"></path></g><g transform="translate(582.046875 713.25) rotate(0 64.453125 12)"><text x="0" y="0" font-family="Cascadia, Segoe UI Emoji" font-size="20px" fill="#1e1e1e" text-anchor="start" style="white-space: pre;" direction="ltr" dominant-baseline="text-before-edge">K8s Service</text></g><g stroke-linecap="round" transform="translate(549 702.75) rotate(0 99 22.5)"><path d="M11.25 0 C71.45 0, 131.65 0, 186.75 0 M11.25 0 C47.62 0, 84 0, 186.75 0 M186.75 0 C194.25 0, 198 3.75, 198 11.25 M186.75 0 C194.25 0, 198 3.75, 198 11.25 M198 11.25 C198 16.31, 198 21.37, 198 33.75 M198 11.25 C198 16.14, 198 21.03, 198 33.75 M198 33.75 C198 41.25, 194.25 45, 186.75 45 M198 33.75 C198 41.25, 194.25 45, 186.75 45 M186.75 45 C122.09 45, 57.42 45, 11.25 45 M186.75 45 C123.96 45, 61.18 45, 11.25 45 M11.25 45 C3.75 45, 0 41.25, 0 33.75 M11.25 45 C3.75 45, 0 41.25, 0 33.75 M0 33.75 C0 29.21, 0 24.68, 0 11.25 M0 33.75 C0 25.84, 0 17.93, 0 11.25 M0 11.25 C0 3.75, 3.75 0, 11.25 0 M0 11.25 C0 3.75, 3.75 0, 11.25 0" stroke="#1e1e1e" stroke-width="1" fill="none"></path></g><g transform="translate(582.046875 789) rotate(0 64.453125 12)"><text x="0" y="0" font-family="Cascadia, Segoe UI Emoji" font-size="20px" fill="#1e1e1e" text-anchor="start" style="white-space: pre;" direction="ltr" dominant-baseline="text-before-edge">K8s Ingress</text></g><g stroke-linecap="round" transform="translate(549 778.5) rotate(0 99 22.5)"><path d="M11.25 0 C66.34 0, 121.44 0, 186.75 0 M11.25 0 C52.51 0, 93.77 0, 186.75 0 M186.75 0 C194.25 0, 198 3.75, 198 11.25 M186.75 0 C194.25 0, 198 3.75, 198 11.25 M198 11.25 C198 17.9, 198 24.55, 198 33.75 M198 11.25 C198 16.34, 198 21.43, 198 33.75 M198 33.75 C198 41.25, 194.25 45, 186.75 45 M198 33.75 C198 41.25, 194.25 45, 186.75 45 M186.75 45 C127.38 45, 68.02 45, 11.25 45 M186.75 45 C146.93 45, 107.1 45, 11.25 45 M11.25 45 C3.75 45, 0 41.25, 0 33.75 M11.25 45 C3.75 45, 0 41.25, 0 33.75 M0 33.75 C0 26.96, 0 20.17, 0 11.25 M0 33.75 C0 29.03, 0 24.32, 0 11.25 M0 11.25 C0 3.75, 3.75 0, 11.25 0 M0 11.25 C0 3.75, 3.75 0, 11.25 0" stroke="#1e1e1e" stroke-width="1" fill="none"></path></g><g stroke-linecap="round" transform="translate(496 565) rotate(0 150.5 144.5)"><path d="M32 0 C117.88 0, 203.75 0, 269 0 M32 0 C116.13 0, 200.26 0, 269 0 M269 0 C290.33 0, 301 10.67, 301 32 M269 0 C290.33 0, 301 10.67, 301 32 M301 32 C301 108.23, 301 184.46, 301 257 M301 32 C301 88.83, 301 145.67, 301 257 M301 257 C301 278.33, 290.33 289, 269 289 M301 257 C301 278.33, 290.33 289, 269 289 M269 289 C185.53 289, 102.07 289, 32 289 M269 289 C198.2 289, 127.4 289, 32 289 M32 289 C10.67 289, 0 278.33, 0 257 M32 289 C10.67 289, 0 278.33, 0 257 M0 257 C0 203.55, 0 150.1, 0 32 M0 257 C0 175.03, 0 93.06, 0 32 M0 32 C0 10.67, 10.67 0, 32 0 M0 32 C0 10.67, 10.67 0, 32 0" stroke="#1e1e1e" stroke-width="1" fill="none"></path></g><g transform="translate(1303.625 359) rotate(0 46.875 12)"><text x="0" y="0" font-family="Cascadia, Segoe UI Emoji" font-size="20px" fill="#1e1e1e" text-anchor="start" style="white-space: pre;" direction="ltr" dominant-baseline="text-before-edge">Registry</text></g><g transform="translate(1264.546875 419) rotate(0 87.890625 12)"><text x="0" y="0" font-family="Cascadia, Segoe UI Emoji" font-size="20px" fill="#1e1e1e" text-anchor="start" style="white-space: pre;" direction="ltr" dominant-baseline="text-before-edge">App 1 - stage 1</text></g><g stroke-linecap="round" transform="translate(1251.5 408.5) rotate(0 99 22.5)"><path d="M11.25 0 C81.21 0, 151.17 0, 186.75 0 M11.25 0 C72.5 0, 133.74 0, 186.75 0 M186.75 0 C194.25 0, 198 3.75, 198 11.25 M186.75 0 C194.25 0, 198 3.75, 198 11.25 M198 11.25 C198 18.39, 198 25.52, 198 33.75 M198 11.25 C198 16.16, 198 21.06, 198 33.75 M198 33.75 C198 41.25, 194.25 45, 186.75 45 M198 33.75 C198 41.25, 194.25 45, 186.75 45 M186.75 45 C141.8 45, 96.85 45, 11.25 45 M186.75 45 C142.97 45, 99.19 45, 11.25 45 M11.25 45 C3.75 45, 0 41.25, 0 33.75 M11.25 45 C3.75 45, 0 41.25, 0 33.75 M0 33.75 C0 27.5, 0 21.25, 0 11.25 M0 33.75 C0 28.14, 0 22.53, 0 11.25 M0 11.25 C0 3.75, 3.75 0, 11.25 0 M0 11.25 C0 3.75, 3.75 0, 11.25 0" stroke="#1e1e1e" stroke-width="1" fill="none"></path></g><g transform="translate(1264.546875 481) rotate(0 87.890625 12)"><text x="0" y="0" font-family="Cascadia, Segoe UI Emoji" font-size="20px" fill="#1e1e1e" text-anchor="start" style="white-space: pre;" direction="ltr" dominant-baseline="text-before-edge">App 1 - stage 2</text></g><g stroke-linecap="round" transform="translate(1251.5 470.5) rotate(0 99 22.5)"><path d="M11.25 0 C73.82 0, 136.39 0, 186.75 0 M11.25 0 C61.62 0, 111.99 0, 186.75 0 M186.75 0 C194.25 0, 198 3.75, 198 11.25 M186.75 0 C194.25 0, 198 3.75, 198 11.25 M198 11.25 C198 17.12, 198 23, 198 33.75 M198 11.25 C198 16.47, 198 21.69, 198 33.75 M198 33.75 C198 41.25, 194.25 45, 186.75 45 M198 33.75 C198 41.25, 194.25 45, 186.75 45 M186.75 45 C117.45 45, 48.15 45, 11.25 45 M186.75 45 C122.38 45, 58 45, 11.25 45 M11.25 45 C3.75 45, 0 41.25, 0 33.75 M11.25 45 C3.75 45, 0 41.25, 0 33.75 M0 33.75 C0 26.64, 0 19.52, 0 11.25 M0 33.75 C0 24.83, 0 15.9, 0 11.25 M0 11.25 C0 3.75, 3.75 0, 11.25 0 M0 11.25 C0 3.75, 3.75 0, 11.25 0" stroke="#1e1e1e" stroke-width="1" fill="none"></path></g><g transform="translate(1264.546875 543) rotate(0 87.890625 12)"><text x="0" y="0" font-family="Cascadia, Segoe UI Emoji" font-size="20px" fill="#1e1e1e" text-anchor="start" style="white-space: pre;" direction="ltr" dominant-baseline="text-before-edge">App 2 - stage 1</text></g><g stroke-linecap="round" transform="translate(1251.5 532.5) rotate(0 99 22.5)"><path d="M11.25 0 C61.15 0, 111.05 0, 186.75 0 M11.25 0 C51.8 0, 92.35 0, 186.75 0 M186.75 0 C194.25 0, 198 3.75, 198 11.25 M186.75 0 C194.25 0, 198 3.75, 198 11.25 M198 11.25 C198 16.13, 198 21, 198 33.75 M198 11.25 C198 17.82, 198 24.4, 198 33.75 M198 33.75 C198 41.25, 194.25 45, 186.75 45 M198 33.75 C198 41.25, 194.25 45, 186.75 45 M186.75 45 C131.32 45, 75.88 45, 11.25 45 M186.75 45 C124.77 45, 62.8 45, 11.25 45 M11.25 45 C3.75 45, 0 41.25, 0 33.75 M11.25 45 C3.75 45, 0 41.25, 0 33.75 M0 33.75 C0 27.44, 0 21.12, 0 11.25 M0 33.75 C0 26.49, 0 19.24, 0 11.25 M0 11.25 C0 3.75, 3.75 0, 11.25 0 M0 11.25 C0 3.75, 3.75 0, 11.25 0" stroke="#1e1e1e" stroke-width="1" fill="none"></path></g><g transform="translate(1331.546875 598) rotate(0 17.578125 12)"><text x="0" y="0" font-family="Cascadia, Segoe UI Emoji" font-size="20px" fill="#1e1e1e" text-anchor="start" style="white-space: pre;" direction="ltr" dominant-baseline="text-before-edge">...</text></g><g stroke-linecap="round" transform="translate(1251.5 593.5) rotate(0 99 22.5)"><path d="M11.25 0 C73.72 0, 136.19 0, 186.75 0 M11.25 0 C59.9 0, 108.54 0, 186.75 0 M186.75 0 C194.25 0, 198 3.75, 198 11.25 M186.75 0 C194.25 0, 198 3.75, 198 11.25 M198 11.25 C198 16.89, 198 22.53, 198 33.75 M198 11.25 C198 17.81, 198 24.38, 198 33.75 M198 33.75 C198 41.25, 194.25 45, 186.75 45 M198 33.75 C198 41.25, 194.25 45, 186.75 45 M186.75 45 C132.47 45, 78.19 45, 11.25 45 M186.75 45 C150.61 45, 114.48 45, 11.25 45 M11.25 45 C3.75 45, 0 41.25, 0 33.75 M11.25 45 C3.75 45, 0 41.25, 0 33.75 M0 33.75 C0 26.61, 0 19.47, 0 11.25 M0 33.75 C0 25.04, 0 16.33, 0 11.25 M0 11.25 C0 3.75, 3.75 0, 11.25 0 M0 11.25 C0 3.75, 3.75 0, 11.25 0" stroke="#1e1e1e" stroke-width="1" fill="none"></path></g><g stroke-linecap="round" transform="translate(1230 350) rotate(0 120.5 166.5)"><path d="M32 0 C71.31 0, 110.61 0, 209 0 M32 0 C82.29 0, 132.59 0, 209 0 M209 0 C230.33 0, 241 10.67, 241 32 M209 0 C230.33 0, 241 10.67, 241 32 M241 32 C241 122.66, 241 213.31, 241 301 M241 32 C241 131.47, 241 230.95, 241 301 M241 301 C241 322.33, 230.33 333, 209 333 M241 301 C241 322.33, 230.33 333, 209 333 M209 333 C168.03 333, 127.06 333, 32 333 M209 333 C145.33 333, 81.66 333, 32 333 M32 333 C10.67 333, 0 322.33, 0 301 M32 333 C10.67 333, 0 322.33, 0 301 M0 301 C0 245.29, 0 189.57, 0 32 M0 301 C0 208.84, 0 116.69, 0 32 M0 32 C0 10.67, 10.67 0, 32 0 M0 32 C0 10.67, 10.67 0, 32 0" stroke="#1e1e1e" stroke-width="1" fill="none"></path></g><g transform="translate(1332.546875 246) rotate(0 17.578125 12)"><text x="0" y="0" font-family="Cascadia, Segoe UI Emoji" font-size="20px" fill="#1e1e1e" text-anchor="start" style="white-space: pre;" direction="ltr" dominant-baseline="text-before-edge">...</text></g><g stroke-linecap="round" transform="translate(1321.5 241.5) rotate(0 27.5 22.5)"><path d="M11.25 0 C18.26 0, 25.27 0, 43.75 0 M11.25 0 C20.03 0, 28.8 0, 43.75 0 M43.75 0 C51.25 0, 55 3.75, 55 11.25 M43.75 0 C51.25 0, 55 3.75, 55 11.25 M55 11.25 C55 19.91, 55 28.56, 55 33.75 M55 11.25 C55 19.33, 55 27.4, 55 33.75 M55 33.75 C55 41.25, 51.25 45, 43.75 45 M55 33.75 C55 41.25, 51.25 45, 43.75 45 M43.75 45 C33.32 45, 22.9 45, 11.25 45 M43.75 45 C30.83 45, 17.9 45, 11.25 45 M11.25 45 C3.75 45, 0 41.25, 0 33.75 M11.25 45 C3.75 45, 0 41.25, 0 33.75 M0 33.75 C0 26.92, 0 20.08, 0 11.25 M0 33.75 C0 26.41, 0 19.07, 0 11.25 M0 11.25 C0 3.75, 3.75 0, 11.25 0 M0 11.25 C0 3.75, 3.75 0, 11.25 0" stroke="#1e1e1e" stroke-width="1" fill="none"></path></g><g transform="translate(1290.40625 94) rotate(0 58.59375 12)"><text x="0" y="0" font-family="Cascadia, Segoe UI Emoji" font-size="20px" fill="#1e1e1e" text-anchor="start" style="white-space: pre;" direction="ltr" dominant-baseline="text-before-edge">S3 (Minio)</text></g><g stroke-linecap="round" transform="translate(1317.5 133) rotate(0 31.5 16.5)"><path d="M8.25 0 C25.59 0, 42.93 0, 54.75 0 M8.25 0 C20.43 0, 32.62 0, 54.75 0 M54.75 0 C60.25 0, 63 2.75, 63 8.25 M54.75 0 C60.25 0, 63 2.75, 63 8.25 M63 8.25 C63 14.49, 63 20.73, 63 24.75 M63 8.25 C63 12.59, 63 16.92, 63 24.75 M63 24.75 C63 30.25, 60.25 33, 54.75 33 M63 24.75 C63 30.25, 60.25 33, 54.75 33 M54.75 33 C41.34 33, 27.94 33, 8.25 33 M54.75 33 C40.61 33, 26.46 33, 8.25 33 M8.25 33 C2.75 33, 0 30.25, 0 24.75 M8.25 33 C2.75 33, 0 30.25, 0 24.75 M0 24.75 C0 19.84, 0 14.93, 0 8.25 M0 24.75 C0 18.58, 0 12.41, 0 8.25 M0 8.25 C0 2.75, 2.75 0, 8.25 0 M0 8.25 C0 2.75, 2.75 0, 8.25 0" stroke="#1e1e1e" stroke-width="1" fill="none"></path></g><g transform="translate(1322.8671875 138) rotate(0 26.1328125 11.5)"><text x="26.1328125" y="0" font-family="Helvetica, Segoe UI Emoji" font-size="20px" fill="#1e1e1e" text-anchor="middle" style="white-space: pre;" direction="ltr" dominant-baseline="text-before-edge">App 1</text></g><g stroke-linecap="round" transform="translate(1317.5 184) rotate(0 31.5 16.5)"><path d="M8.25 0 C22.14 0, 36.03 0, 54.75 0 M8.25 0 C25.58 0, 42.9 0, 54.75 0 M54.75 0 C60.25 0, 63 2.75, 63 8.25 M54.75 0 C60.25 0, 63 2.75, 63 8.25 M63 8.25 C63 12.34, 63 16.43, 63 24.75 M63 8.25 C63 12.44, 63 16.63, 63 24.75 M63 24.75 C63 30.25, 60.25 33, 54.75 33 M63 24.75 C63 30.25, 60.25 33, 54.75 33 M54.75 33 C42.66 33, 30.58 33, 8.25 33 M54.75 33 C37.09 33, 19.43 33, 8.25 33 M8.25 33 C2.75 33, 0 30.25, 0 24.75 M8.25 33 C2.75 33, 0 30.25, 0 24.75 M0 24.75 C0 19.18, 0 13.61, 0 8.25 M0 24.75 C0 18.62, 0 12.5, 0 8.25 M0 8.25 C0 2.75, 2.75 0, 8.25 0 M0 8.25 C0 2.75, 2.75 0, 8.25 0" stroke="#1e1e1e" stroke-width="1" fill="none"></path></g><g transform="translate(1322.8671875 189) rotate(0 26.1328125 11.5)"><text x="26.1328125" y="0" font-family="Helvetica, Segoe UI Emoji" font-size="20px" fill="#1e1e1e" text-anchor="middle" style="white-space: pre;" direction="ltr" dominant-baseline="text-before-edge">App 2</text></g><g stroke-linecap="round" transform="translate(1280 74) rotate(0 69 123.5)"><path d="M32 0 C57.2 0, 82.4 0, 106 0 M32 0 C55.47 0, 78.94 0, 106 0 M106 0 C127.33 0, 138 10.67, 138 32 M106 0 C127.33 0, 138 10.67, 138 32 M138 32 C138 73.61, 138 115.22, 138 215 M138 32 C138 86.11, 138 140.22, 138 215 M138 215 C138 236.33, 127.33 247, 106 247 M138 215 C138 236.33, 127.33 247, 106 247 M106 247 C85.26 247, 64.52 247, 32 247 M106 247 C82.91 247, 59.82 247, 32 247 M32 247 C10.67 247, 0 236.33, 0 215 M32 247 C10.67 247, 0 236.33, 0 215 M0 215 C0 154, 0 93, 0 32 M0 215 C0 168.05, 0 121.09, 0 32 M0 32 C0 10.67, 10.67 0, 32 0 M0 32 C0 10.67, 10.67 0, 32 0" stroke="#1e1e1e" stroke-width="1" fill="none"></path></g><g transform="translate(1664.125 356.5) rotate(0 99.609375 12)"><text x="0" y="0" font-family="Cascadia, Segoe UI Emoji" font-size="20px" fill="#1e1e1e" text-anchor="start" style="white-space: pre;" direction="ltr" dominant-baseline="text-before-edge">External Registry</text></g><g transform="translate(1677.046875 410.5) rotate(0 87.890625 12)"><text x="0" y="0" font-family="Cascadia, Segoe UI Emoji" font-size="20px" fill="#1e1e1e" text-anchor="start" style="white-space: pre;" direction="ltr" dominant-baseline="text-before-edge">App 1 - stage 1</text></g><g stroke-linecap="round" transform="translate(1664 400) rotate(0 99 22.5)"><path d="M11.25 0 C61 0, 110.75 0, 186.75 0 M11.25 0 C48.05 0, 84.84 0, 186.75 0 M186.75 0 C194.25 0, 198 3.75, 198 11.25 M186.75 0 C194.25 0, 198 3.75, 198 11.25 M198 11.25 C198 19.69, 198 28.12, 198 33.75 M198 11.25 C198 16.77, 198 22.29, 198 33.75 M198 33.75 C198 41.25, 194.25 45, 186.75 45 M198 33.75 C198 41.25, 194.25 45, 186.75 45 M186.75 45 C135.31 45, 83.88 45, 11.25 45 M186.75 45 C121.52 45, 56.28 45, 11.25 45 M11.25 45 C3.75 45, 0 41.25, 0 33.75 M11.25 45 C3.75 45, 0 41.25, 0 33.75 M0 33.75 C0 29.17, 0 24.59, 0 11.25 M0 33.75 C0 25.01, 0 16.27, 0 11.25 M0 11.25 C0 3.75, 3.75 0, 11.25 0 M0 11.25 C0 3.75, 3.75 0, 11.25 0" stroke="#1e1e1e" stroke-width="1" fill="none"></path></g><g transform="translate(1677.046875 472.5) rotate(0 87.890625 12)"><text x="0" y="0" font-family="Cascadia, Segoe UI Emoji" font-size="20px" fill="#1e1e1e" text-anchor="start" style="white-space: pre;" direction="ltr" dominant-baseline="text-before-edge">App 1 - stage 2</text></g><g stroke-linecap="round" transform="translate(1664 462) rotate(0 99 22.5)"><path d="M11.25 0 C56.01 0, 100.76 0, 186.75 0 M11.25 0 C79.15 0, 147.05 0, 186.75 0 M186.75 0 C194.25 0, 198 3.75, 198 11.25 M186.75 0 C194.25 0, 198 3.75, 198 11.25 M198 11.25 C198 16.55, 198 21.85, 198 33.75 M198 11.25 C198 18.85, 198 26.44, 198 33.75 M198 33.75 C198 41.25, 194.25 45, 186.75 45 M198 33.75 C198 41.25, 194.25 45, 186.75 45 M186.75 45 C148.96 45, 111.16 45, 11.25 45 M186.75 45 C122.07 45, 57.4 45, 11.25 45 M11.25 45 C3.75 45, 0 41.25, 0 33.75 M11.25 45 C3.75 45, 0 41.25, 0 33.75 M0 33.75 C0 24.98, 0 16.2, 0 11.25 M0 33.75 C0 26.52, 0 19.3, 0 11.25 M0 11.25 C0 3.75, 3.75 0, 11.25 0 M0 11.25 C0 3.75, 3.75 0, 11.25 0" stroke="#1e1e1e" stroke-width="1" fill="none"></path></g><g transform="translate(1677.046875 534.5) rotate(0 87.890625 12)"><text x="0" y="0" font-family="Cascadia, Segoe UI Emoji" font-size="20px" fill="#1e1e1e" text-anchor="start" style="white-space: pre;" direction="ltr" dominant-baseline="text-before-edge">App 2 - stage 1</text></g><g stroke-linecap="round" transform="translate(1664 524) rotate(0 99 22.5)"><path d="M11.25 0 C76.29 0, 141.34 0, 186.75 0 M11.25 0 C66.22 0, 121.19 0, 186.75 0 M186.75 0 C194.25 0, 198 3.75, 198 11.25 M186.75 0 C194.25 0, 198 3.75, 198 11.25 M198 11.25 C198 16.72, 198 22.19, 198 33.75 M198 11.25 C198 16.2, 198 21.15, 198 33.75 M198 33.75 C198 41.25, 194.25 45, 186.75 45 M198 33.75 C198 41.25, 194.25 45, 186.75 45 M186.75 45 C125.67 45, 64.59 45, 11.25 45 M186.75 45 C139.85 45, 92.96 45, 11.25 45 M11.25 45 C3.75 45, 0 41.25, 0 33.75 M11.25 45 C3.75 45, 0 41.25, 0 33.75 M0 33.75 C0 24.79, 0 15.83, 0 11.25 M0 33.75 C0 28.11, 0 22.47, 0 11.25 M0 11.25 C0 3.75, 3.75 0, 11.25 0 M0 11.25 C0 3.75, 3.75 0, 11.25 0" stroke="#1e1e1e" stroke-width="1" fill="none"></path></g><g transform="translate(1744.046875 589.5) rotate(0 17.578125 12)"><text x="0" y="0" font-family="Cascadia, Segoe UI Emoji" font-size="20px" fill="#1e1e1e" text-anchor="start" style="white-space: pre;" direction="ltr" dominant-baseline="text-before-edge">...</text></g><g stroke-linecap="round" transform="translate(1664 585) rotate(0 99 22.5)"><path d="M11.25 0 C69.74 0, 128.24 0, 186.75 0 M11.25 0 C60.48 0, 109.71 0, 186.75 0 M186.75 0 C194.25 0, 198 3.75, 198 11.25 M186.75 0 C194.25 0, 198 3.75, 198 11.25 M198 11.25 C198 19.16, 198 27.07, 198 33.75 M198 11.25 C198 18.48, 198 25.7, 198 33.75 M198 33.75 C198 41.25, 194.25 45, 186.75 45 M198 33.75 C198 41.25, 194.25 45, 186.75 45 M186.75 45 C148.01 45, 109.27 45, 11.25 45 M186.75 45 C132.68 45, 78.62 45, 11.25 45 M11.25 45 C3.75 45, 0 41.25, 0 33.75 M11.25 45 C3.75 45, 0 41.25, 0 33.75 M0 33.75 C0 27.93, 0 22.1, 0 11.25 M0 33.75 C0 26.91, 0 20.06, 0 11.25 M0 11.25 C0 3.75, 3.75 0, 11.25 0 M0 11.25 C0 3.75, 3.75 0, 11.25 0" stroke="#1e1e1e" stroke-width="1" fill="none"></path></g><g stroke-linecap="round" transform="translate(1642.5 341.5) rotate(0 120.5 166.5)"><path d="M32 0 C98.85 0, 165.71 0, 209 0 M32 0 C75.06 0, 118.12 0, 209 0 M209 0 C230.33 0, 241 10.67, 241 32 M209 0 C230.33 0, 241 10.67, 241 32 M241 32 C241 88.44, 241 144.88, 241 301 M241 32 C241 112.43, 241 192.85, 241 301 M241 301 C241 322.33, 230.33 333, 209 333 M241 301 C241 322.33, 230.33 333, 209 333 M209 333 C142.9 333, 76.8 333, 32 333 M209 333 C167.97 333, 126.94 333, 32 333 M32 333 C10.67 333, 0 322.33, 0 301 M32 333 C10.67 333, 0 322.33, 0 301 M0 301 C0 194.28, 0 87.55, 0 32 M0 301 C0 245.72, 0 190.43, 0 32 M0 32 C0 10.67, 10.67 0, 32 0 M0 32 C0 10.67, 10.67 0, 32 0" stroke="#1e1e1e" stroke-width="1" fill="none"></path></g><g transform="translate(1740.546875 211.5) rotate(0 17.578125 12)"><text x="0" y="0" font-family="Cascadia, Segoe UI Emoji" font-size="20px" fill="#1e1e1e" text-anchor="start" style="white-space: pre;" direction="ltr" dominant-baseline="text-before-edge">...</text></g><g stroke-linecap="round" transform="translate(1729.5 207) rotate(0 27.5 22.5)"><path d="M11.25 0 C22.2 0, 33.16 0, 43.75 0 M11.25 0 C22.15 0, 33.05 0, 43.75 0 M43.75 0 C51.25 0, 55 3.75, 55 11.25 M43.75 0 C51.25 0, 55 3.75, 55 11.25 M55 11.25 C55 19.38, 55 27.51, 55 33.75 M55 11.25 C55 17.89, 55 24.52, 55 33.75 M55 33.75 C55 41.25, 51.25 45, 43.75 45 M55 33.75 C55 41.25, 51.25 45, 43.75 45 M43.75 45 C31.7 45, 19.66 45, 11.25 45 M43.75 45 C34.73 45, 25.72 45, 11.25 45 M11.25 45 C3.75 45, 0 41.25, 0 33.75 M11.25 45 C3.75 45, 0 41.25, 0 33.75 M0 33.75 C0 26.79, 0 19.84, 0 11.25 M0 33.75 C0 25.79, 0 17.83, 0 11.25 M0 11.25 C0 3.75, 3.75 0, 11.25 0 M0 11.25 C0 3.75, 3.75 0, 11.25 0" stroke="#1e1e1e" stroke-width="1" fill="none"></path></g><g transform="translate(1724.40625 57.5) rotate(0 35.15625 12)"><text x="0" y="0" font-family="Cascadia, Segoe UI Emoji" font-size="20px" fill="#1e1e1e" text-anchor="start" style="white-space: pre;" direction="ltr" dominant-baseline="text-before-edge">AWS S3</text></g><g stroke-linecap="round" transform="translate(1725.5 98.5) rotate(0 31.5 16.5)"><path d="M8.25 0 C19.36 0, 30.48 0, 54.75 0 M8.25 0 C23.49 0, 38.73 0, 54.75 0 M54.75 0 C60.25 0, 63 2.75, 63 8.25 M54.75 0 C60.25 0, 63 2.75, 63 8.25 M63 8.25 C63 12.19, 63 16.12, 63 24.75 M63 8.25 C63 13.04, 63 17.82, 63 24.75 M63 24.75 C63 30.25, 60.25 33, 54.75 33 M63 24.75 C63 30.25, 60.25 33, 54.75 33 M54.75 33 C45.23 33, 35.72 33, 8.25 33 M54.75 33 C41.29 33, 27.82 33, 8.25 33 M8.25 33 C2.75 33, 0 30.25, 0 24.75 M8.25 33 C2.75 33, 0 30.25, 0 24.75 M0 24.75 C0 20.24, 0 15.72, 0 8.25 M0 24.75 C0 18.43, 0 12.11, 0 8.25 M0 8.25 C0 2.75, 2.75 0, 8.25 0 M0 8.25 C0 2.75, 2.75 0, 8.25 0" stroke="#1e1e1e" stroke-width="1" fill="none"></path></g><g transform="translate(1730.8671875 103.5) rotate(0 26.1328125 11.5)"><text x="26.1328125" y="0" font-family="Helvetica, Segoe UI Emoji" font-size="20px" fill="#1e1e1e" text-anchor="middle" style="white-space: pre;" direction="ltr" dominant-baseline="text-before-edge">App 1</text></g><g stroke-linecap="round" transform="translate(1725.5 149.5) rotate(0 31.5 16.5)"><path d="M8.25 0 C24.19 0, 40.14 0, 54.75 0 M8.25 0 C25.71 0, 43.16 0, 54.75 0 M54.75 0 C60.25 0, 63 2.75, 63 8.25 M54.75 0 C60.25 0, 63 2.75, 63 8.25 M63 8.25 C63 12.57, 63 16.89, 63 24.75 M63 8.25 C63 14.01, 63 19.78, 63 24.75 M63 24.75 C63 30.25, 60.25 33, 54.75 33 M63 24.75 C63 30.25, 60.25 33, 54.75 33 M54.75 33 C40.82 33, 26.89 33, 8.25 33 M54.75 33 C37.43 33, 20.11 33, 8.25 33 M8.25 33 C2.75 33, 0 30.25, 0 24.75 M8.25 33 C2.75 33, 0 30.25, 0 24.75 M0 24.75 C0 19.85, 0 14.95, 0 8.25 M0 24.75 C0 18.55, 0 12.35, 0 8.25 M0 8.25 C0 2.75, 2.75 0, 8.25 0 M0 8.25 C0 2.75, 2.75 0, 8.25 0" stroke="#1e1e1e" stroke-width="1" fill="none"></path></g><g transform="translate(1730.8671875 154.5) rotate(0 26.1328125 11.5)"><text x="26.1328125" y="0" font-family="Helvetica, Segoe UI Emoji" font-size="20px" fill="#1e1e1e" text-anchor="middle" style="white-space: pre;" direction="ltr" dominant-baseline="text-before-edge">App 2</text></g><g stroke-linecap="round" transform="translate(1688 39.5) rotate(0 69 123.5)"><path d="M32 0 C51.19 0, 70.38 0, 106 0 M32 0 C58.2 0, 84.39 0, 106 0 M106 0 C127.33 0, 138 10.67, 138 32 M106 0 C127.33 0, 138 10.67, 138 32 M138 32 C138 101.25, 138 170.5, 138 215 M138 32 C138 72.98, 138 113.97, 138 215 M138 215 C138 236.33, 127.33 247, 106 247 M138 215 C138 236.33, 127.33 247, 106 247 M106 247 C90.13 247, 74.26 247, 32 247 M106 247 C85.4 247, 64.79 247, 32 247 M32 247 C10.67 247, 0 236.33, 0 215 M32 247 C10.67 247, 0 236.33, 0 215 M0 215 C0 173.81, 0 132.62, 0 32 M0 215 C0 176.67, 0 138.35, 0 32 M0 32 C0 10.67, 10.67 0, 32 0 M0 32 C0 10.67, 10.67 0, 32 0" stroke="#1e1e1e" stroke-width="1" fill="none"></path></g><g stroke-linecap="round" transform="translate(1430 232) rotate(90 140 17)"><path d="M8.5 0 C110.79 0, 213.08 0, 271.5 0 M8.5 0 C89.92 0, 171.34 0, 271.5 0 M271.5 0 C277.17 0, 280 2.83, 280 8.5 M271.5 0 C277.17 0, 280 2.83, 280 8.5 M280 8.5 C280 12.55, 280 16.6, 280 25.5 M280 8.5 C280 13.41, 280 18.31, 280 25.5 M280 25.5 C280 31.17, 277.17 34, 271.5 34 M280 25.5 C280 31.17, 277.17 34, 271.5 34 M271.5 34 C167.92 34, 64.34 34, 8.5 34 M271.5 34 C190.82 34, 110.14 34, 8.5 34 M8.5 34 C2.83 34, 0 31.17, 0 25.5 M8.5 34 C2.83 34, 0 31.17, 0 25.5 M0 25.5 C0 19.28, 0 13.07, 0 8.5 M0 25.5 C0 20.63, 0 15.75, 0 8.5 M0 8.5 C0 2.83, 2.83 0, 8.5 0 M0 8.5 C0 2.83, 2.83 0, 8.5 0" stroke="#1e1e1e" stroke-width="1" fill="none"></path></g><g transform="translate(1435.234375 237) rotate(90 134.765625 12)"><text x="134.765625" y="0" font-family="Cascadia, Segoe UI Emoji" font-size="20px" fill="#1e1e1e" text-anchor="middle" style="white-space: pre;" direction="ltr" dominant-baseline="text-before-edge">app1.mysystemdomain.org</text></g><g stroke-linecap="round" transform="translate(64 282) rotate(270 192.5 17)"><path d="M8.5 0 C135.65 0, 262.79 0, 376.5 0 M8.5 0 C92.74 0, 176.97 0, 376.5 0 M376.5 0 C382.17 0, 385 2.83, 385 8.5 M376.5 0 C382.17 0, 385 2.83, 385 8.5 M385 8.5 C385 13.8, 385 19.1, 385 25.5 M385 8.5 C385 12.01, 385 15.51, 385 25.5 M385 25.5 C385 31.17, 382.17 34, 376.5 34 M385 25.5 C385 31.17, 382.17 34, 376.5 34 M376.5 34 C251.17 34, 125.84 34, 8.5 34 M376.5 34 C279.61 34, 182.71 34, 8.5 34 M8.5 34 C2.83 34, 0 31.17, 0 25.5 M8.5 34 C2.83 34, 0 31.17, 0 25.5 M0 25.5 C0 19.59, 0 13.68, 0 8.5 M0 25.5 C0 21.25, 0 17.01, 0 8.5 M0 8.5 C0 2.83, 2.83 0, 8.5 0 M0 8.5 C0 2.83, 2.83 0, 8.5 0" stroke="#1e1e1e" stroke-width="1" fill="none"></path></g><g transform="translate(69 287) rotate(270 187.5 12)"><text x="187.5" y="0" font-family="Cascadia, Segoe UI Emoji" font-size="20px" fill="#1e1e1e" text-anchor="middle" style="white-space: pre;" direction="ltr" dominant-baseline="text-before-edge">epinio.mysystemdomain.org/api/v1</text></g><g stroke-linecap="round" transform="translate(222 10) rotate(0 691.5 468)"><path d="M32 0 C517.11 0, 1002.22 0, 1351 0 M32 0 C369.77 0, 707.54 0, 1351 0 M1351 0 C1372.33 0, 1383 10.67, 1383 32 M1351 0 C1372.33 0, 1383 10.67, 1383 32 M1383 32 C1383 289.29, 1383 546.58, 1383 904 M1383 32 C1383 304.54, 1383 577.08, 1383 904 M1383 904 C1383 925.33, 1372.33 936, 1351 936 M1383 904 C1383 925.33, 1372.33 936, 1351 936 M1351 936 C1013.05 936, 675.11 936, 32 936 M1351 936 C921.42 936, 491.84 936, 32 936 M32 936 C10.67 936, 0 925.33, 0 904 M32 936 C10.67 936, 0 925.33, 0 904 M0 904 C0 698.63, 0 493.26, 0 32 M0 904 C0 703.75, 0 503.49, 0 32 M0 32 C0 10.67, 10.67 0, 32 0 M0 32 C0 10.67, 10.67 0, 32 0" stroke="#1e1e1e" stroke-width="1" fill="none"></path></g><g stroke-linecap="round" transform="translate(291.5 55) rotate(0 622 423.00000000000006)"><path d="M32 0 C335.5 0, 639 0, 1212 0 M32 0 C469.63 0, 907.25 0, 1212 0 M1212 0 C1233.33 0, 1244 10.67, 1244 32 M1212 0 C1233.33 0, 1244 10.67, 1244 32 M1244 32 C1244 223.32, 1244 414.64, 1244 814 M1244 32 C1244 306.84, 1244 581.68, 1244 814 M1244 814 C1244 835.33, 1233.33 846, 1212 846 M1244 814 C1244 835.33, 1233.33 846, 1212 846 M1212 846 C867.73 846, 523.45 846, 32 846 M1212 846 C804.1 846, 396.2 846, 32 846 M32 846 C10.67 846, 0 835.33, 0 814 M32 846 C10.67 846, 0 835.33, 0 814 M0 814 C0 510.32, 0 206.64, 0 32 M0 814 C0 542.14, 0 270.28, 0 32 M0 32 C0 10.67, 10.67 0, 32 0 M0 32 C0 10.67, 10.67 0, 32 0" stroke="#1e1e1e" stroke-width="1" fill="none"></path></g><g stroke-linecap="round"><g transform="translate(66.5 299.75) rotate(0 77 0)"><path d="M0 0 C25.67 0, 128.33 0, 154 0 M0 0 C25.67 0, 128.33 0, 154 0" stroke="#1e1e1e" stroke-width="1" fill="none"></path></g><g transform="translate(66.5 299.75) rotate(0 77 0)"><path d="M125.81 10.26 C133.82 7.35, 141.83 4.43, 154 0 M125.81 10.26 C136.74 6.28, 147.67 2.3, 154 0" stroke="#1e1e1e" stroke-width="1" fill="none"></path></g><g transform="translate(66.5 299.75) rotate(0 77 0)"><path d="M125.81 -10.26 C133.82 -7.35, 141.83 -4.43, 154 0 M125.81 -10.26 C136.74 -6.28, 147.67 -2.3, 154 0" stroke="#1e1e1e" stroke-width="1" fill="none"></path></g></g><mask></mask><g stroke-linecap="round"><g transform="translate(66.5 383.75) rotate(0 77 0)"><path d="M0 0 C25.67 0, 128.33 0, 154 0 M0 0 C25.67 0, 128.33 0, 154 0" stroke="#1e1e1e" stroke-width="1" fill="none"></path></g><g transform="translate(66.5 383.75) rotate(0 77 0)"><path d="M125.81 10.26 C133.11 7.6, 140.41 4.95, 154 0 M125.81 10.26 C134.83 6.98, 143.84 3.7, 154 0" stroke="#1e1e1e" stroke-width="1" fill="none"></path></g><g transform="translate(66.5 383.75) rotate(0 77 0)"><path d="M125.81 -10.26 C133.11 -7.6, 140.41 -4.95, 154 0 M125.81 -10.26 C134.83 -6.98, 143.84 -3.7, 154 0" stroke="#1e1e1e" stroke-width="1" fill="none"></path></g></g><mask></mask><g stroke-linecap="round"><g transform="translate(67.5 466.75) rotate(0 77 0)"><path d="M0 0 C25.67 0, 128.33 0, 154 0 M0 0 C25.67 0, 128.33 0, 154 0" stroke="#1e1e1e" stroke-width="1" fill="none"></path></g><g transform="translate(67.5 466.75) rotate(0 77 0)"><path d="M125.81 10.26 C133.61 7.42, 141.42 4.58, 154 0 M125.81 10.26 C136.69 6.3, 147.56 2.34, 154 0" stroke="#1e1e1e" stroke-width="1" fill="none"></path></g><g transform="translate(67.5 466.75) rotate(0 77 0)"><path d="M125.81 -10.26 C133.61 -7.42, 141.42 -4.58, 154 0 M125.81 -10.26 C136.69 -6.3, 147.56 -2.34, 154 0" stroke="#1e1e1e" stroke-width="1" fill="none"></path></g></g><mask></mask><g transform="translate(40.5 287.75) rotate(0 11.123046875 11.5)"><text x="0" y="0" font-family="Helvetica, Segoe UI Emoji" font-size="20px" fill="#1e1e1e" text-anchor="start" style="white-space: pre;" direction="ltr" dominant-baseline="text-before-edge">1a</text></g><g transform="translate(39.5 372.75) rotate(0 11.123046875 11.5)"><text x="0" y="0" font-family="Helvetica, Segoe UI Emoji" font-size="20px" fill="#1e1e1e" text-anchor="start" style="white-space: pre;" direction="ltr" dominant-baseline="text-before-edge">3a</text></g><g transform="translate(40.5 455.75) rotate(0 11.123046875 11.5)"><text x="0" y="0" font-family="Helvetica, Segoe UI Emoji" font-size="20px" fill="#1e1e1e" text-anchor="start" style="white-space: pre;" direction="ltr" dominant-baseline="text-before-edge">8a</text></g><g stroke-linecap="round"><g transform="translate(291.5 294.75) rotate(0 103.5 -27.5)"><path d="M0 0 C34.5 -9.17, 172.5 -45.83, 207 -55 M0 0 C34.5 -9.17, 172.5 -45.83, 207 -55" stroke="#1e1e1e" stroke-width="1" fill="none"></path></g><g transform="translate(291.5 294.75) rotate(0 103.5 -27.5)"><path d="M182.39 -37.84 C188.99 -42.45, 195.6 -47.05, 207 -55 M182.39 -37.84 C188.3 -41.97, 194.22 -46.09, 207 -55" stroke="#1e1e1e" stroke-width="1" fill="none"></path></g><g transform="translate(291.5 294.75) rotate(0 103.5 -27.5)"><path d="M177.12 -57.68 C185.14 -56.96, 193.16 -56.24, 207 -55 M177.12 -57.68 C184.3 -57.03, 191.48 -56.39, 207 -55" stroke="#1e1e1e" stroke-width="1" fill="none"></path></g></g><mask></mask><g stroke-linecap="round"><g transform="translate(291.5 384.75) rotate(0 104.5 -42)"><path d="M0 0 C34.83 -14, 174.17 -70, 209 -84 M0 0 C34.83 -14, 174.17 -70, 209 -84" stroke="#1e1e1e" stroke-width="1" fill="none"></path></g><g transform="translate(291.5 384.75) rotate(0 104.5 -42)"><path d="M186.67 -63.97 C194.85 -71.3, 203.02 -78.64, 209 -84 M186.67 -63.97 C194.47 -70.97, 202.27 -77.96, 209 -84" stroke="#1e1e1e" stroke-width="1" fill="none"></path></g><g transform="translate(291.5 384.75) rotate(0 104.5 -42)"><path d="M179.02 -83.01 C189.99 -83.37, 200.97 -83.73, 209 -84 M179.02 -83.01 C189.49 -83.35, 199.97 -83.7, 209 -84" stroke="#1e1e1e" stroke-width="1" fill="none"></path></g></g><mask></mask><g stroke-linecap="round"><g transform="translate(290.5 470.75) rotate(0 103.5 -52.5)"><path d="M0 0 C34.5 -17.5, 172.5 -87.5, 207 -105 M0 0 C34.5 -17.5, 172.5 -87.5, 207 -105" stroke="#1e1e1e" stroke-width="1" fill="none"></path></g><g transform="translate(290.5 470.75) rotate(0 103.5 -52.5)"><path d="M186.5 -83.1 C194.37 -91.51, 202.25 -99.92, 207 -105 M186.5 -83.1 C194.69 -91.85, 202.89 -100.6, 207 -105" stroke="#1e1e1e" stroke-width="1" fill="none"></path></g><g transform="translate(290.5 470.75) rotate(0 103.5 -52.5)"><path d="M177.22 -101.4 C188.65 -102.78, 200.09 -104.16, 207 -105 M177.22 -101.4 C189.12 -102.84, 201.02 -104.28, 207 -105" stroke="#1e1e1e" stroke-width="1" fill="none"></path></g></g><mask></mask><g transform="translate(360.5 248.75) rotate(0 11.123046875 11.5)"><text x="0" y="0" font-family="Helvetica, Segoe UI Emoji" font-size="20px" fill="#1e1e1e" text-anchor="start" style="white-space: pre;" direction="ltr" dominant-baseline="text-before-edge">1b</text></g><g transform="translate(359.5 325.75) rotate(0 11.123046875 11.5)"><text x="0" y="0" font-family="Helvetica, Segoe UI Emoji" font-size="20px" fill="#1e1e1e" text-anchor="start" style="white-space: pre;" direction="ltr" dominant-baseline="text-before-edge">3b</text></g><g transform="translate(360.5 399.75) rotate(0 11.123046875 11.5)"><text x="0" y="0" font-family="Helvetica, Segoe UI Emoji" font-size="20px" fill="#1e1e1e" text-anchor="start" style="white-space: pre;" direction="ltr" dominant-baseline="text-before-edge">8b</text></g><g stroke-linecap="round"><g transform="translate(616.5 299.75) rotate(0 146 54.5)"><path d="M0 0 C48.67 18.17, 243.33 90.83, 292 109 M0 0 C48.67 18.17, 243.33 90.83, 292 109" stroke="#1e1e1e" stroke-width="1" fill="none"></path></g><g transform="translate(616.5 299.75) rotate(0 146 54.5)"><path d="M262 108.75 C268.46 108.81, 274.93 108.86, 292 109 M262 108.75 C270.68 108.83, 279.37 108.9, 292 109" stroke="#1e1e1e" stroke-width="1" fill="none"></path></g><g transform="translate(616.5 299.75) rotate(0 146 54.5)"><path d="M269.18 89.53 C274.09 93.72, 279.01 97.92, 292 109 M269.18 89.53 C275.78 95.16, 282.39 100.8, 292 109" stroke="#1e1e1e" stroke-width="1" fill="none"></path></g></g><mask></mask><g stroke-linecap="round"><g transform="translate(555.5 383.75) rotate(0 44.5 89.5)"><path d="M0 0 C14.83 29.83, 74.17 149.17, 89 179 M0 0 C14.83 29.83, 74.17 149.17, 89 179" stroke="#1e1e1e" stroke-width="1" fill="none"></path></g><g transform="translate(555.5 383.75) rotate(0 44.5 89.5)"><path d="M67.26 158.33 C74.15 164.87, 81.03 171.42, 89 179 M67.26 158.33 C75.02 165.71, 82.78 173.09, 89 179" stroke="#1e1e1e" stroke-width="1" fill="none"></path></g><g transform="translate(555.5 383.75) rotate(0 44.5 89.5)"><path d="M85.64 149.19 C86.7 158.63, 87.77 168.07, 89 179 M85.64 149.19 C86.84 159.83, 88.04 170.47, 89 179" stroke="#1e1e1e" stroke-width="1" fill="none"></path></g></g><mask></mask><g stroke-linecap="round"><g transform="translate(747.5000000000002 657.7470433332047) rotate(0 238.9999999999999 -61.69719776416946)"><path d="M0 0 C79.67 -20.57, 398.33 -102.83, 478 -123.39 M0 0 C79.67 -20.57, 398.33 -102.83, 478 -123.39" stroke="#1e1e1e" stroke-width="1" fill="none"></path></g><g transform="translate(747.5000000000002 657.7470433332047) rotate(0 238.9999999999999 -61.69719776416946)"><path d="M453.27 -106.41 C461.58 -112.12, 469.9 -117.83, 478 -123.39 M453.27 -106.41 C460.93 -111.67, 468.59 -116.94, 478 -123.39" stroke="#1e1e1e" stroke-width="1" fill="none"></path></g><g transform="translate(747.5000000000002 657.7470433332047) rotate(0 238.9999999999999 -61.69719776416946)"><path d="M448.14 -126.28 C458.18 -125.31, 468.22 -124.34, 478 -123.39 M448.14 -126.28 C457.39 -125.39, 466.64 -124.49, 478 -123.39" stroke="#1e1e1e" stroke-width="1" fill="none"></path></g></g><mask></mask><g stroke-linecap="round"><g transform="translate(1030.5 472.75) rotate(0 99.5 -0.5)"><path d="M0 0 C33.17 -0.17, 165.83 -0.83, 199 -1 M0 0 C33.17 -0.17, 165.83 -0.83, 199 -1" stroke="#1e1e1e" stroke-width="1" fill="none"></path></g><g transform="translate(1030.5 472.75) rotate(0 99.5 -0.5)"><path d="M170.86 9.4 C176.53 7.31, 182.2 5.21, 199 -1 M170.86 9.4 C177.78 6.85, 184.69 4.29, 199 -1" stroke="#1e1e1e" stroke-width="1" fill="none"></path></g><g transform="translate(1030.5 472.75) rotate(0 99.5 -0.5)"><path d="M170.76 -11.12 C176.45 -9.08, 182.14 -7.04, 199 -1 M170.76 -11.12 C177.7 -8.63, 184.64 -6.14, 199 -1" stroke="#1e1e1e" stroke-width="1" fill="none"></path></g></g><mask></mask><g stroke-linecap="round"><g transform="translate(747.5 723.75) rotate(0 393.5 13)"><path d="M0 0 C131.17 4.33, 655.83 21.67, 787 26 M0 0 C131.17 4.33, 655.83 21.67, 787 26" stroke="#1e1e1e" stroke-width="1" fill="none"></path></g></g><mask></mask><g stroke-linecap="round"><g transform="translate(746.5 799.75) rotate(0 394.5 -15.5)"><path d="M0 0 C131.5 -5.17, 657.5 -25.83, 789 -31 M0 0 C131.5 -5.17, 657.5 -25.83, 789 -31" stroke="#1e1e1e" stroke-width="1" fill="none"></path></g></g><mask></mask><g stroke-linecap="round"><g transform="translate(1411.5 309.75) rotate(0 144 -13.5)"><path d="M0 0 C48 -4.5, 240 -22.5, 288 -27 M0 0 C48 -4.5, 240 -22.5, 288 -27" stroke="#1e1e1e" stroke-width="1" fill="none"></path></g></g><mask></mask><g stroke-linecap="round"><g transform="translate(1411.5 81.75) rotate(0 146 -19)"><path d="M0 0 C48.67 -6.33, 243.33 -31.67, 292 -38 M0 0 C48.67 -6.33, 243.33 -31.67, 292 -38" stroke="#1e1e1e" stroke-width="1" fill="none"></path></g></g><mask></mask><g stroke-linecap="round"><g transform="translate(1462.5 357.75) rotate(0 94 -4.5)"><path d="M0 0 C31.33 -1.5, 156.67 -7.5, 188 -9 M0 0 C31.33 -1.5, 156.67 -7.5, 188 -9" stroke="#1e1e1e" stroke-width="1" fill="none"></path></g></g><mask></mask><g stroke-linecap="round"><g transform="translate(1465.5 672.75) rotate(0 92.5 -3)"><path d="M0 0 C30.83 -1, 154.17 -5, 185 -6 M0 0 C30.83 -1, 154.17 -5, 185 -6" stroke="#1e1e1e" stroke-width="1" fill="none"></path></g></g><mask></mask><g stroke-linecap="round"><g transform="translate(1278.5 195.75) rotate(0 -124 77.5)"><path d="M0 0 C-41.33 25.83, -206.67 129.17, -248 155 M0 0 C-41.33 25.83, -206.67 129.17, -248 155" stroke="#1e1e1e" stroke-width="1" fill="none"></path></g><g transform="translate(1278.5 195.75) rotate(0 -124 77.5)"><path d="M-229.53 131.36 C-235.41 138.89, -241.29 146.41, -248 155 M-229.53 131.36 C-234.71 137.99, -239.89 144.62, -248 155" stroke="#1e1e1e" stroke-width="1" fill="none"></path></g><g transform="translate(1278.5 195.75) rotate(0 -124 77.5)"><path d="M-218.66 148.76 C-228 150.75, -237.34 152.73, -248 155 M-218.66 148.76 C-226.89 150.51, -235.12 152.26, -248 155" stroke="#1e1e1e" stroke-width="1" fill="none"></path></g></g><mask></mask><g stroke-linecap="round" transform="translate(1819.5 789.25) rotate(0 50 80)"><path d="M25 0 C39.37 -0.85, 53.34 -1.01, 75 0 C93.28 0.83, 100.41 4.83, 100 25 C99.95 52.21, 97.27 71.09, 100 135 C99.28 148.88, 93.71 161.04, 75 160 C56.95 160.18, 45.03 161.58, 25 160 C11.35 156.98, 2.42 152.98, 0 135 C4.72 92.82, -1.25 58.6, 0 25 C-3.33 4.89, 5.57 0.76, 25 0" stroke="none" stroke-width="0" fill="#ced4da"></path><path d="M25 0 C38.08 0, 53.03 -1.5, 75 0 M25 0 C43.93 0.31, 62.48 -0.21, 75 0 M75 0 C93.52 0.7, 100.92 8.53, 100 25 M75 0 C90.73 -0.24, 101.19 7.25, 100 25 M100 25 C98.67 52.1, 99.38 78.32, 100 135 M100 25 C99.37 61.75, 98.53 97.92, 100 135 M100 135 C98.34 150.96, 93.65 159.27, 75 160 M100 135 C100.9 151.18, 93.96 160.74, 75 160 M75 160 C58.71 158.39, 39.93 161.25, 25 160 M75 160 C60.59 161.23, 45.12 161.03, 25 160 M25 160 C9.63 161.37, 1.33 153.35, 0 135 M25 160 C10.08 161.67, -1.53 149.65, 0 135 M0 135 C-0.56 105.33, 0.51 74.41, 0 25 M0 135 C-1.63 105.77, -0.67 77.64, 0 25 M0 25 C1.37 7.04, 7.21 1.95, 25 0 M0 25 C-2.14 8.4, 6.27 -2.22, 25 0" stroke="#000000" stroke-width="1" fill="none"></path></g><g stroke-linecap="round" transform="translate(1829.5 799.25) rotate(0 40 60)"><path d="M1.3 1.37 L81.33 1.69 L81.52 121.45 L-1.33 118.25" stroke="none" stroke-width="0" fill="#ffffff"></path><path d="M0 0 C29.16 -1.27, 61.91 -2.01, 80 0 M0 0 C28.43 -0.39, 58.5 -0.14, 80 0 M80 0 C79.91 42.54, 79.18 81.74, 80 120 M80 0 C80.89 40.67, 81 82.74, 80 120 M80 120 C61.58 118.36, 42.01 118.36, 0 120 M80 120 C59.22 119.49, 38.64 120.03, 0 120 M0 120 C1.24 77.94, -0.53 39.98, 0 0 M0 120 C0.69 84.73, 0.26 48.43, 0 0" stroke="#000000" stroke-width="1" fill="none"></path></g><g stroke-linecap="round" transform="translate(1859.5 929.25) rotate(0 10 10)"><path d="M9.42 0.15 C11.47 -0.09, 14.16 0.78, 15.89 2.04 C17.62 3.3, 19.31 5.63, 19.81 7.71 C20.31 9.8, 19.85 12.69, 18.89 14.57 C17.93 16.45, 16.01 18.15, 14.03 19 C12.06 19.84, 9.11 20.19, 7.03 19.65 C4.95 19.1, 2.73 17.51, 1.55 15.7 C0.36 13.9, -0.36 10.99, -0.07 8.81 C0.22 6.63, 1.68 4.09, 3.27 2.6 C4.86 1.1, 8.44 0.23, 9.46 -0.16 C10.48 -0.56, 9.37 0.01, 9.39 0.23 M9.65 0.14 C11.7 -0.01, 14.61 0.91, 16.25 2.17 C17.89 3.43, 19.12 5.61, 19.5 7.7 C19.87 9.79, 19.45 12.75, 18.52 14.72 C17.58 16.7, 15.83 18.79, 13.88 19.57 C11.93 20.34, 8.89 20.13, 6.82 19.38 C4.74 18.62, 2.53 16.83, 1.44 15.04 C0.35 13.25, -0.05 10.71, 0.27 8.66 C0.59 6.62, 1.77 4.24, 3.38 2.76 C4.98 1.29, 8.87 0.22, 9.91 -0.19 C10.96 -0.59, 9.67 0.09, 9.65 0.33" stroke="none" stroke-width="0" fill="#868e96"></path><path d="M9.2 -0.03 C11.2 -0.31, 13.96 0.72, 15.71 1.96 C17.46 3.21, 19.15 5.43, 19.72 7.45 C20.28 9.47, 20.02 12.15, 19.11 14.1 C18.2 16.05, 16.21 18.24, 14.25 19.14 C12.3 20.05, 9.42 20.1, 7.37 19.55 C5.31 18.99, 3.18 17.54, 1.93 15.84 C0.67 14.13, -0.29 11.41, -0.15 9.29 C0 7.17, 1.22 4.66, 2.78 3.1 C4.34 1.54, 8.14 0.4, 9.21 -0.08 C10.28 -0.56, 9.16 0.08, 9.18 0.23 M10.62 -0.1 C12.72 -0.16, 15.19 1.02, 16.79 2.49 C18.39 3.95, 19.89 6.57, 20.2 8.68 C20.5 10.79, 19.83 13.32, 18.62 15.15 C17.4 16.97, 14.98 18.95, 12.89 19.61 C10.81 20.27, 8 19.94, 6.09 19.12 C4.18 18.31, 2.41 16.54, 1.43 14.72 C0.44 12.9, -0.23 10.24, 0.2 8.19 C0.63 6.13, 2.31 3.72, 4.01 2.39 C5.71 1.05, 9.3 0.52, 10.38 0.19 C11.47 -0.14, 10.49 0.23, 10.51 0.41" stroke="#000000" stroke-width="1" fill="none"></path></g><g stroke-linecap="round"><g transform="translate(1605.5 832.75) rotate(0 47.5 -17.5)"><path d="M0 0 C15.83 -5.83, 79.17 -29.17, 95 -35 M0 0 C15.83 -5.83, 79.17 -29.17, 95 -35" stroke="#1e1e1e" stroke-width="1" fill="none"></path></g><g transform="translate(1605.5 832.75) rotate(0 47.5 -17.5)"><path d="M72.09 -15.63 C79.37 -21.78, 86.65 -27.93, 95 -35 M72.09 -15.63 C79.33 -21.75, 86.57 -27.87, 95 -35" stroke="#1e1e1e" stroke-width="1" fill="none"></path></g><g transform="translate(1605.5 832.75) rotate(0 47.5 -17.5)"><path d="M65 -34.88 C74.53 -34.92, 84.06 -34.96, 95 -35 M65 -34.88 C74.48 -34.92, 83.96 -34.96, 95 -35" stroke="#1e1e1e" stroke-width="1" fill="none"></path></g></g><mask></mask><g stroke-linecap="round"><g transform="translate(616.5 238.75) rotate(0 332 -50.5)"><path d="M0 0 C110.67 -16.83, 553.33 -84.17, 664 -101 M0 0 C110.67 -16.83, 553.33 -84.17, 664 -101" stroke="#1e1e1e" stroke-width="1" fill="none"></path></g><g transform="translate(616.5 238.75) rotate(0 332 -50.5)"><path d="M637.67 -86.62 C646.9 -91.66, 656.13 -96.7, 664 -101 M637.67 -86.62 C645.04 -90.64, 652.41 -94.67, 664 -101" stroke="#1e1e1e" stroke-width="1" fill="none"></path></g><g transform="translate(616.5 238.75) rotate(0 332 -50.5)"><path d="M634.59 -106.9 C644.9 -104.83, 655.21 -102.77, 664 -101 M634.59 -106.9 C642.82 -105.25, 651.05 -103.6, 664 -101" stroke="#1e1e1e" stroke-width="1" fill="none"></path></g></g><mask></mask><g transform="translate(904.5 166.75) rotate(0 5.5615234375 11.5)"><text x="0" y="0" font-family="Helvetica, Segoe UI Emoji" font-size="20px" fill="#1e1e1e" text-anchor="start" style="white-space: pre;" direction="ltr" dominant-baseline="text-before-edge">2</text></g><g transform="translate(742.5 319.75) rotate(0 5.5615234375 11.5)"><text x="0" y="0" font-family="Helvetica, Segoe UI Emoji" font-size="20px" fill="#1e1e1e" text-anchor="start" style="white-space: pre;" direction="ltr" dominant-baseline="text-before-edge">4</text></g><g transform="translate(617.5 469.75) rotate(0 5.5615234375 11.5)"><text x="0" y="0" font-family="Helvetica, Segoe UI Emoji" font-size="20px" fill="#1e1e1e" text-anchor="start" style="white-space: pre;" direction="ltr" dominant-baseline="text-before-edge">8</text></g><g transform="translate(942.5 574.75) rotate(0 5.5615234375 11.5)"><text x="0" y="0" font-family="Helvetica, Segoe UI Emoji" font-size="20px" fill="#1e1e1e" text-anchor="start" style="white-space: pre;" direction="ltr" dominant-baseline="text-before-edge">9</text></g><g transform="translate(1129.5 447.75) rotate(0 5.5615234375 11.5)"><text x="0" y="0" font-family="Helvetica, Segoe UI Emoji" font-size="20px" fill="#1e1e1e" text-anchor="start" style="white-space: pre;" direction="ltr" dominant-baseline="text-before-edge">7</text></g><g transform="translate(1036.5 397.75) rotate(0 5.5615234375 11.5)"><text x="0" y="0" font-family="Helvetica, Segoe UI Emoji" font-size="20px" fill="#1e1e1e" text-anchor="start" style="white-space: pre;" direction="ltr" dominant-baseline="text-before-edge">6</text></g><g transform="translate(1516.5 63.75) rotate(352.12072184503495 53.359375 11.5)"><text x="0" y="0" font-family="Helvetica, Segoe UI Emoji" font-size="20px" fill="#1e1e1e" text-anchor="start" style="white-space: pre;" direction="ltr" dominant-baseline="text-before-edge">alternatively</text></g><g transform="translate(1501.140625 634.25) rotate(358.0908475670036 53.359375 11.5)"><text x="0" y="0" font-family="Helvetica, Segoe UI Emoji" font-size="20px" fill="#1e1e1e" text-anchor="start" style="white-space: pre;" direction="ltr" dominant-baseline="text-before-edge">alternatively</text></g></svg>