<svg version="1.1" xmlns="http://www.w3.org/2000/svg" viewBox="0 0 2042.363525390625 1100.44039520343" width="2042.363525390625" height="1100.44039520343">
  <!-- svg-source:excalidraw -->
  
  <defs>
    <style class="style-fonts">
      @font-face {
        font-family: "Virgil";
        src: url("https://excalidraw.com/Virgil.woff2");
      }
      @font-face {
        font-family: "Cascadia";
        src: url("https://excalidraw.com/Cascadia.woff2");
      }
    </style>
    
  </defs>
  <rect x="0" y="0" width="2042.363525390625" height="1100.44039520343" fill="#ffffff"></rect><g stroke-linecap="round" transform="translate(10 123) rotate(0 352.4207763671875 356.25)"><path d="M0 0 C229.18 -2.29, 457.54 -2.19, 704.84 0 M0 0 C239.09 -1.58, 477.81 -2.05, 704.84 0 M704.84 0 C705.92 174.21, 707.19 348.63, 704.84 712.5 M704.84 0 C706.28 167.08, 706.39 333.83, 704.84 712.5 M704.84 712.5 C437.55 712.8, 169.25 712.69, 0 712.5 M704.84 712.5 C504.25 712.96, 304.14 712.9, 0 712.5 M0 712.5 C-1.19 497.03, -1.99 282.35, 0 0 M0 712.5 C1.12 504.83, 0.45 297.57, 0 0" stroke="#1e1e1e" stroke-width="2" fill="none"></path></g><g stroke-linecap="round" transform="translate(30 148) rotate(0 274.3740234375 60.25)"><path d="M0 0 C201.57 0.79, 403.45 1.43, 548.75 0 M0 0 C197.79 -1.09, 395.82 -0.52, 548.75 0 M548.75 0 C549.46 32.24, 546.51 64.75, 548.75 120.5 M548.75 0 C550.47 25.01, 550.35 52.29, 548.75 120.5 M548.75 120.5 C393.39 123.22, 237.05 122, 0 120.5 M548.75 120.5 C375.05 120.3, 200.76 120.62, 0 120.5 M0 120.5 C-1.48 80.47, -0.94 43.57, 0 0 M0 120.5 C-1.84 80.23, -1.37 39.09, 0 0" stroke="#1e1e1e" stroke-width="2" fill="none"></path></g><g stroke-linecap="round" transform="translate(405.357666015625 554.5) rotate(0 147.296875 128)"><path d="M0 0 C74.4 1.44, 148.54 1.05, 294.59 0 M0 0 C98.09 2.27, 196.74 1.26, 294.59 0 M294.59 0 C295.23 75.92, 294.9 151.57, 294.59 256 M294.59 0 C297.15 76.9, 296.38 153.57, 294.59 256 M294.59 256 C178.09 256.68, 62.3 257.44, 0 256 M294.59 256 C207.81 255.98, 121.13 256.01, 0 256 M0 256 C0.59 203.14, 1.36 152.55, 0 0 M0 256 C1.4 185.3, 1.57 113.65, 0 0" stroke="#1e1e1e" stroke-width="2" fill="none"></path></g><g stroke-linecap="round" transform="translate(1156.544677734375 282.5) rotate(0 437.909423828125 258.5)"><path d="M0 0 C231.01 -1.37, 461.33 -1.97, 875.82 0 M0 0 C189.16 -2.39, 378.57 -1.75, 875.82 0 M875.82 0 C873.78 162.8, 874.45 325.29, 875.82 517 M875.82 0 C877.41 112.02, 877.86 223.53, 875.82 517 M875.82 517 C542.55 514.28, 208.97 515.06, 0 517 M875.82 517 C631.58 519.35, 386.82 518.95, 0 517 M0 517 C0.49 410.02, 0 301.01, 0 0 M0 517 C0.64 331.14, 0.47 145.95, 0 0" stroke="#1e1e1e" stroke-width="2" fill="none"></path></g><g stroke-linecap="round" transform="translate(1852.269775390625 543.5) rotate(0 72.796875 103)"><path d="M0 0 C50.61 -1.42, 98.17 -1.35, 145.59 0 M0 0 C52.26 1.94, 104.78 0.46, 145.59 0 M145.59 0 C144 71.94, 142.53 142.02, 145.59 206 M145.59 0 C146.14 74.34, 146.02 147.6, 145.59 206 M145.59 206 C112.39 207.2, 78.99 205.71, 0 206 M145.59 206 C92.27 206.57, 39.94 206.84, 0 206 M0 206 C-1.12 148.37, 0.33 93.03, 0 0 M0 206 C-0.26 138.19, 0.69 69.86, 0 0" stroke="#1e1e1e" stroke-width="2" fill="none"></path></g><g stroke-linecap="round" transform="translate(1176.544677734375 307.5) rotate(0 320.112548828125 233.5)"><path d="M0 0 C202.02 1.06, 405.85 1.23, 640.23 0 M0 0 C142.88 -2.36, 285.81 -2.44, 640.23 0 M640.23 0 C639.43 171.67, 640.73 341.73, 640.23 467 M640.23 0 C642.6 181.89, 641.91 364.01, 640.23 467 M640.23 467 C461.96 468.95, 284.51 469.07, 0 467 M640.23 467 C407.01 466.06, 174.41 466.25, 0 467 M0 467 C1.02 286.37, 0.77 106.22, 0 0 M0 467 C1.37 352.79, 0.68 237.85, 0 0" stroke="#1e1e1e" stroke-width="2" fill="none"></path></g><g stroke-linecap="round" transform="translate(815.841552734375 410.5) rotate(0 135.3515625 21.5)"><path d="M0 0 C65.66 0.23, 130.19 0.4, 270.7 0 M0 0 C103.46 0.27, 206.88 0.51, 270.7 0 M270.7 0 C271 16.76, 271.23 34.47, 270.7 43 M270.7 0 C270.56 15.26, 270.75 30.37, 270.7 43 M270.7 43 C169.36 43.11, 67.7 42.46, 0 43 M270.7 43 C199.03 43.05, 127.77 42.87, 0 43 M0 43 C0.14 33.48, -0.5 23.74, 0 0 M0 43 C-0.45 27.34, -0.4 11.66, 0 0" stroke="#1e1e1e" stroke-width="2" fill="none"></path></g><g stroke-linecap="round" transform="translate(1538.238525390625 332.5) rotate(0 77.6640625 21.5)"><path d="M0 0 C37.42 0.16, 76.58 0.3, 155.33 0 M0 0 C36.67 0.49, 73.19 0.18, 155.33 0 M155.33 0 C156.09 17.05, 155.82 33.3, 155.33 43 M155.33 0 C155.13 12.21, 155.49 24.39, 155.33 43 M155.33 43 C108.99 42.39, 61.45 42.42, 0 43 M155.33 43 C110.39 43.14, 64.52 43.44, 0 43 M0 43 C-0.46 31.13, 0.4 20.43, 0 0 M0 43 C-0.16 27.09, 0.47 11.54, 0 0" stroke="#1e1e1e" stroke-width="2" fill="none"></path></g><g stroke-linecap="round" transform="translate(1211.544677734375 332.5) rotate(0 138.346923828125 21.5)"><path d="M0 0 C73.86 0.13, 146.41 0.28, 276.69 0 M0 0 C59.63 -0.23, 118.95 0.18, 276.69 0 M276.69 0 C277.23 12.8, 276.72 23.88, 276.69 43 M276.69 0 C276.94 13.56, 276.66 27.49, 276.69 43 M276.69 43 C188.79 41.72, 101.24 42.09, 0 43 M276.69 43 C182.64 42.99, 88.94 42.91, 0 43 M0 43 C0.54 31, 0.56 17.49, 0 0 M0 43 C0.45 31.33, 0.17 20.4, 0 0" stroke="#1e1e1e" stroke-width="2" fill="none"></path></g><g stroke-linecap="round" transform="translate(1510.035400390625 625) rotate(0 135.8671875 21.5)"><path d="M0 0 C79.5 0.13, 159.26 0.27, 271.73 0 M0 0 C81.35 0.83, 162.19 0.92, 271.73 0 M271.73 0 C271.7 16.43, 271.95 33.78, 271.73 43 M271.73 0 C271.86 12.89, 271.92 25.57, 271.73 43 M271.73 43 C216.04 42.12, 160.67 42.78, 0 43 M271.73 43 C196.32 43.56, 121.07 43.31, 0 43 M0 43 C0.37 31.66, -0.35 21.15, 0 0 M0 43 C-0.1 33.63, -0.01 23.57, 0 0" stroke="#1e1e1e" stroke-width="2" fill="none"></path></g><g stroke-linecap="round" transform="translate(1877.269775390625 578.5) rotate(0 47.796875 21.5)"><path d="M0 0 C29.37 0.34, 60 0.54, 95.59 0 M0 0 C20.59 0.12, 41.64 -0.01, 95.59 0 M95.59 0 C95.7 16.21, 95.53 33.3, 95.59 43 M95.59 0 C95.66 12.23, 95.24 23.86, 95.59 43 M95.59 43 C75.98 43.54, 55.61 42.31, 0 43 M95.59 43 C61.22 42.91, 26.74 43.34, 0 43 M0 43 C-0.35 27.22, -0.65 13.32, 0 0 M0 43 C0.12 32.44, 0.35 22.17, 0 0" stroke="#1e1e1e" stroke-width="2" fill="none"></path></g><g stroke-linecap="round" transform="translate(1891.11474609375 671.5) rotate(0 33.951904296875 21.5)"><path d="M0 0 C23.16 0.52, 45.72 0.43, 67.9 0 M0 0 C24.7 -0.03, 49 -0.28, 67.9 0 M67.9 0 C67.89 10.33, 67.78 19.56, 67.9 43 M67.9 0 C67.58 15.33, 67.59 30.9, 67.9 43 M67.9 43 C49.21 42.62, 31.3 42.97, 0 43 M67.9 43 C45.18 43.09, 23.04 43.1, 0 43 M0 43 C-0.5 34.98, -0.36 25.77, 0 0 M0 43 C0.31 26.53, 0.18 9.6, 0 0" stroke="#1e1e1e" stroke-width="2" fill="none"></path></g><g stroke-linecap="round" transform="translate(1471.238525390625 157.75) rotate(0 77.6640625 21.5)"><path d="M0 0 C56.23 0.06, 114.15 -0.65, 155.33 0 M0 0 C60.82 -0.36, 120.78 -0.24, 155.33 0 M155.33 0 C155.16 11.97, 155.76 24.05, 155.33 43 M155.33 0 C154.84 15.61, 155.08 31.42, 155.33 43 M155.33 43 C95.79 42.29, 35.6 42.45, 0 43 M155.33 43 C117.44 43.59, 78.8 43.23, 0 43 M0 43 C-0.29 33.8, 0.77 24.72, 0 0 M0 43 C0.08 30.6, -0.26 18.21, 0 0" stroke="#1e1e1e" stroke-width="2" fill="none"></path></g><g stroke-linecap="round" transform="translate(959.7978515625 10) rotate(0 113.09375 35.25)"><path d="M0 0 C89.8 -1.83, 179.14 0.07, 226.19 0 M0 0 C79.31 0.45, 159.69 0.26, 226.19 0 M226.19 0 C227.23 26.82, 227.31 51.06, 226.19 70.5 M226.19 0 C225.27 19.04, 226.4 37.06, 226.19 70.5 M226.19 70.5 C177.12 69.66, 126.03 68.95, 0 70.5 M226.19 70.5 C143.64 71.44, 62.07 71.09, 0 70.5 M0 70.5 C2.14 44.01, 0.13 18.08, 0 0 M0 70.5 C-0.73 45.34, -0.77 20.94, 0 0" stroke="#1e1e1e" stroke-width="2" fill="none"></path></g><g stroke-linecap="round" transform="translate(140.17822265625 1005.5000036629026) rotate(0 79.289306640625 42.47019577026367)"><path d="M0 0 C62.09 2.15, 121.67 1.87, 158.58 0 M0 0 C44.89 -0.32, 90.98 -0.48, 158.58 0 M158.58 0 C160.36 23.69, 158.37 49.36, 158.58 84.94 M158.58 0 C159.21 24.52, 157.54 50.08, 158.58 84.94 M158.58 84.94 C115.14 83.69, 75.13 85.8, 0 84.94 M158.58 84.94 C100.1 83.66, 44.16 83.85, 0 84.94 M0 84.94 C-1.01 60.57, 0.3 33.57, 0 0 M0 84.94 C-0.08 61.18, -0.22 36.48, 0 0" stroke="#1e1e1e" stroke-width="2" fill="none"></path></g><g stroke-linecap="round" transform="translate(577.654541015625 661) rotate(0 41.093505859375 21.5)"><path d="M-0.03 0.44 L82.01 0.55 L82.02 43.45 L-0.25 42.64" stroke="none" stroke-width="0" fill="#f9f"></path><path d="M0 0 C23.73 0.31, 46.55 -0.83, 82.19 0 M0 0 C26.34 -0.06, 52.12 0.24, 82.19 0 M82.19 0 C82.03 12.95, 82.22 27.06, 82.19 43 M82.19 0 C82.03 14.8, 82.2 29.28, 82.19 43 M82.19 43 C58.96 43.23, 35.3 42.11, 0 43 M82.19 43 C60.6 42.57, 38.41 43.1, 0 43 M0 43 C0.41 29.06, -0.12 13.95, 0 0 M0 43 C-0.12 31.26, -0.24 20.27, 0 0" stroke="#1e1e1e" stroke-width="2" fill="none"></path></g><g stroke-linecap="round" transform="translate(445.467529296875 661) rotate(0 41.093505859375 21.5)"><path d="M0 0 C32.32 -0.78, 65 -0.41, 82.19 0 M0 0 C24.22 0.29, 48.49 0.3, 82.19 0 M82.19 0 C82.07 8.6, 82.42 18.25, 82.19 43 M82.19 0 C81.94 12.04, 82.01 23.63, 82.19 43 M82.19 43 C62.38 42.43, 41.38 42.53, 0 43 M82.19 43 C63.7 43.16, 45.27 42.78, 0 43 M0 43 C-0.23 25.67, -0.33 8.52, 0 0 M0 43 C-0.22 29.9, 0.06 16.67, 0 0" stroke="#1e1e1e" stroke-width="2" fill="none"></path></g><g stroke-linecap="round" transform="translate(461.56103515625 186.75) rotate(0 41.093505859375 21.5)"><path d="M0 0 C31.41 0.06, 62.53 0.78, 82.19 0 M0 0 C22.99 0.05, 45.5 -0.31, 82.19 0 M82.19 0 C82.46 9.59, 82 17.31, 82.19 43 M82.19 0 C82.09 15.24, 81.94 31.11, 82.19 43 M82.19 43 C52.97 42.07, 23.69 43.33, 0 43 M82.19 43 C62.23 43.22, 42.37 43.46, 0 43 M0 43 C-0.22 27.08, 0.1 11.27, 0 0 M0 43 C0.11 33.64, 0.04 24.1, 0 0" stroke="#1e1e1e" stroke-width="2" fill="none"></path></g><g stroke-linecap="round" transform="translate(329.3740234375 186.75) rotate(0 41.093505859375 21.5)"><path d="M0 0 C18.64 0.63, 37.21 0.08, 82.19 0 M0 0 C29.21 -0.33, 58.78 -0.23, 82.19 0 M82.19 0 C82.08 11.13, 82.69 23.21, 82.19 43 M82.19 0 C81.97 14.49, 82.36 28.77, 82.19 43 M82.19 43 C65.1 43.38, 48.7 42.82, 0 43 M82.19 43 C50.7 43.15, 18.72 42.89, 0 43 M0 43 C0.12 30.95, -0.52 18.99, 0 0 M0 43 C-0.08 28.28, -0.08 13.24, 0 0" stroke="#1e1e1e" stroke-width="2" fill="none"></path></g><g stroke-linecap="round" transform="translate(197.18701171875 186.75) rotate(0 41.093505859375 21.5)"><path d="M0 0 C22.71 -0.22, 46.17 -0.1, 82.19 0 M0 0 C29.55 0.08, 59.68 0.25, 82.19 0 M82.19 0 C82.59 16.36, 82.39 33.12, 82.19 43 M82.19 0 C82.3 10.78, 81.74 20.96, 82.19 43 M82.19 43 C64.06 43.34, 47.4 43.52, 0 43 M82.19 43 C58.86 43.09, 34.94 43.03, 0 43 M0 43 C-0.58 30.85, 0.35 19.84, 0 0 M0 43 C-0.05 27.75, -0.08 11.88, 0 0" stroke="#1e1e1e" stroke-width="2" fill="none"></path></g><g stroke-linecap="round" transform="translate(65 186.75) rotate(0 41.093505859375 21.5)"><path d="M0 0 C31.31 0.12, 62.22 -0.71, 82.19 0 M0 0 C21.63 0.17, 43.79 -0.06, 82.19 0 M82.19 0 C82.52 9.34, 81.87 18.47, 82.19 43 M82.19 0 C81.9 15.41, 81.96 30.79, 82.19 43 M82.19 43 C51.13 43.29, 18.68 43.76, 0 43 M82.19 43 C53.14 42.82, 24.19 42.97, 0 43 M0 43 C0.48 32.03, 0.57 20.95, 0 0 M0 43 C-0.09 26.76, 0.07 11.06, 0 0" stroke="#1e1e1e" stroke-width="2" fill="none"></path></g><g stroke-linecap="round"><g transform="translate(1557.528642283532 201.75) rotate(0 24.833596283213637 65.10095993119691)"><path d="M0.09 0.35 C8.3 21.88, 41.04 108, 49.23 129.56 M-0.52 0.05 C7.85 21.64, 41.71 108.45, 50.18 130.15" stroke="#1e1e1e" stroke-width="2" fill="none"></path></g><g transform="translate(1557.528642283532 201.75) rotate(0 24.833596283213637 65.10095993119691)"><path d="M30.38 107.61 C37.04 113.45, 42.03 120.27, 50.18 130.15 M30.38 107.61 C36.54 114.03, 41.49 121, 50.18 130.15" stroke="#1e1e1e" stroke-width="2" fill="none"></path></g><g transform="translate(1557.528642283532 201.75) rotate(0 24.833596283213637 65.10095993119691)"><path d="M49.5 100.16 C50.42 108.25, 49.65 117.33, 50.18 130.15 M49.5 100.16 C50.08 108.78, 49.46 117.92, 50.18 130.15" stroke="#1e1e1e" stroke-width="2" fill="none"></path></g></g><mask></mask><g stroke-linecap="round"><g transform="translate(1105.4132869176397 81.5) rotate(0 112.09142159744806 124.84149188118053)"><path d="M-1.14 -0.43 C36.02 41.1, 185.67 208.08, 223.19 249.9 M0.46 -1.7 C37.96 39.95, 188.23 209.7, 225.33 251.38" stroke="#1e1e1e" stroke-width="2" fill="none"></path></g><g transform="translate(1105.4132869176397 81.5) rotate(0 112.09142159744806 124.84149188118053)"><path d="M198.94 237.11 C206.68 240.05, 215.58 245.86, 225.33 251.38 M198.94 237.11 C207.2 242.6, 216.63 247.16, 225.33 251.38" stroke="#1e1e1e" stroke-width="2" fill="none"></path></g><g transform="translate(1105.4132869176397 81.5) rotate(0 112.09142159744806 124.84149188118053)"><path d="M214.29 223.48 C217.25 230.6, 221.29 240.73, 225.33 251.38 M214.29 223.48 C217.46 233.56, 221.68 242.75, 225.33 251.38" stroke="#1e1e1e" stroke-width="2" fill="none"></path></g></g><mask></mask><g stroke-linecap="round"><g transform="translate(1537.4343188664782 376.0943499529063) rotate(0 -224.65938717476502 24.36911994209487)"><path d="M-0.48 -0.04 C-19.01 5.25, -36.85 23.48, -111.68 31.61 C-186.51 39.74, -393.01 45.82, -449.44 48.75 M0.22 -0.52 C-18.34 4.64, -37.2 22.51, -112.16 30.8 C-187.12 39.1, -393.17 46.35, -449.54 49.25" stroke="#1e1e1e" stroke-width="2" fill="none"></path></g><g transform="translate(1537.4343188664782 376.0943499529063) rotate(0 -224.65938717476502 24.36911994209487)"><path d="M-421.83 37.76 C-427.61 39.73, -432.83 43.16, -449.54 49.25 M-421.83 37.76 C-429.71 41.17, -437.29 43.95, -449.54 49.25" stroke="#1e1e1e" stroke-width="2" fill="none"></path></g><g transform="translate(1537.4343188664782 376.0943499529063) rotate(0 -224.65938717476502 24.36911994209487)"><path d="M-420.93 58.26 C-426.85 56.03, -432.26 55.26, -449.54 49.25 M-420.93 58.26 C-428.98 55.99, -436.81 53.09, -449.54 49.25" stroke="#1e1e1e" stroke-width="2" fill="none"></path></g></g><mask></mask><g stroke-linecap="round"><g transform="translate(1327.647709161935 376.5) rotate(0 -119.660877826768 21.887633744625816)"><path d="M-0.11 0.16 C-40.01 7.4, -199.7 36.15, -239.75 43.42 M0.57 -0.11 C-39.32 7.2, -199.86 36.69, -239.89 43.89" stroke="#1e1e1e" stroke-width="2" fill="none"></path></g><g transform="translate(1327.647709161935 376.5) rotate(0 -119.660877826768 21.887633744625816)"><path d="M-214 28.74 C-219.1 32.52, -224.96 34.41, -239.89 43.89 M-214 28.74 C-223.36 34, -232.81 39.88, -239.89 43.89" stroke="#1e1e1e" stroke-width="2" fill="none"></path></g><g transform="translate(1327.647709161935 376.5) rotate(0 -119.660877826768 21.887633744625816)"><path d="M-210.32 48.93 C-216.18 48.5, -222.81 46.19, -239.89 43.89 M-210.32 48.93 C-220.98 46.95, -231.75 45.57, -239.89 43.89" stroke="#1e1e1e" stroke-width="2" fill="none"></path></g></g><mask></mask><g stroke-linecap="round"><g transform="translate(1087.544677734375 446.87921417868984) rotate(0 275.25552344335506 88.01959505469858)"><path d="M1.03 -0.27 C82.82 8.7, 399.29 24.7, 490.39 54.33 C581.49 83.96, 538.05 157.15, 547.64 177.5 M0.12 -1.46 C82.3 7.13, 401.5 23.11, 492.59 52.58 C583.69 82.05, 537.42 154.59, 546.66 175.36" stroke="#1e1e1e" stroke-width="2" fill="none"></path></g><g transform="translate(1087.544677734375 446.87921417868984) rotate(0 275.25552344335506 88.01959505469858)"><path d="M537.78 146.71 C539.86 152.83, 543.92 161.6, 546.66 175.36 M537.78 146.71 C540.16 156.87, 544.17 166.41, 546.66 175.36" stroke="#1e1e1e" stroke-width="2" fill="none"></path></g><g transform="translate(1087.544677734375 446.87921417868984) rotate(0 275.25552344335506 88.01959505469858)"><path d="M558.28 147.7 C554.76 153.73, 553.23 162.23, 546.66 175.36 M558.28 147.7 C553.86 157.43, 551.06 166.63, 546.66 175.36" stroke="#1e1e1e" stroke-width="2" fill="none"></path></g></g><mask></mask><g stroke-linecap="round"><g transform="translate(853.1636292741116 454.5) rotate(0 -109.25283510071654 49.6748975651152)"><path d="M-0.97 0.71 C-34.61 8.48, -166.29 30.11, -200.81 46.38 C-235.33 62.65, -206.79 89.45, -208.08 98.34 M0.72 0.04 C-33.2 7.46, -167.03 27.91, -201.97 44.46 C-236.91 61.01, -207.81 90.46, -208.92 99.31" stroke="#1e1e1e" stroke-width="2" fill="none"></path></g><g transform="translate(853.1636292741116 454.5) rotate(0 -109.25283510071654 49.6748975651152)"><path d="M-226.15 78.83 C-218.36 86.22, -212.26 94.55, -208.92 99.31 M-226.15 78.83 C-221.51 84.38, -218.8 88.43, -208.92 99.31" stroke="#1e1e1e" stroke-width="2" fill="none"></path></g><g transform="translate(853.1636292741116 454.5) rotate(0 -109.25283510071654 49.6748975651152)"><path d="M-208.95 72.55 C-207.82 82.22, -208.36 92.98, -208.92 99.31 M-208.95 72.55 C-208.56 79.75, -210.07 85.34, -208.92 99.31" stroke="#1e1e1e" stroke-width="2" fill="none"></path></g></g><mask></mask><g stroke-linecap="round"><g transform="translate(814.841552734375 423.94120685769406) rotate(0 -152.87987667125344 -77.60547307781553)"><path d="M-0.4 0.38 C-46.62 -2.59, -228.7 8.58, -278.33 -17.1 C-327.95 -42.78, -295.06 -130.94, -298.15 -153.71 M1.6 -0.46 C-44.72 -3.35, -229.21 9.96, -279.35 -15.91 C-329.49 -41.77, -296.43 -132.34, -299.25 -155.66" stroke="#1e1e1e" stroke-width="2" fill="none"></path></g><g transform="translate(814.841552734375 423.94120685769406) rotate(0 -152.87987667125344 -77.60547307781553)"><path d="M-292.15 -126.52 C-293.24 -133.17, -296.53 -140.39, -299.25 -155.66 M-292.15 -126.52 C-295.86 -137.33, -298.28 -148.27, -299.25 -155.66" stroke="#1e1e1e" stroke-width="2" fill="none"></path></g><g transform="translate(814.841552734375 423.94120685769406) rotate(0 -152.87987667125344 -77.60547307781553)"><path d="M-312.55 -128.77 C-309.15 -134.86, -307.97 -141.59, -299.25 -155.66 M-312.55 -128.77 C-308.87 -138.9, -303.93 -149.03, -299.25 -155.66" stroke="#1e1e1e" stroke-width="2" fill="none"></path></g></g><mask></mask><g stroke-linecap="round"><g transform="translate(615.1413233170213 705) rotate(0 -158.08278794595606 163.89045774189702)"><path d="M-0.14 -0.66 C-52.75 54.02, -263.59 273.58, -316.02 328.44 M-1.68 1.61 C-53.85 55.91, -261.39 272.55, -313.65 326.7" stroke="#1e1e1e" stroke-width="2" fill="none"></path></g><g transform="translate(615.1413233170213 705) rotate(0 -158.08278794595606 163.89045774189702)"><path d="M-301.51 299.27 C-305.76 305.51, -306.68 314.95, -313.65 326.7 M-301.51 299.27 C-307.04 308.45, -309.75 318.61, -313.65 326.7" stroke="#1e1e1e" stroke-width="2" fill="none"></path></g><g transform="translate(615.1413233170213 705) rotate(0 -158.08278794595606 163.89045774189702)"><path d="M-286.71 313.49 C-294.96 315.92, -299.83 321.56, -313.65 326.7 M-286.71 313.49 C-297.48 317.45, -305.57 322.45, -313.65 326.7" stroke="#1e1e1e" stroke-width="2" fill="none"></path></g></g><mask></mask><g stroke-linecap="round"><g transform="translate(479.2804951218061 705) rotate(0 -89.14176709983087 161.87841824697819)"><path d="M-0.64 0.73 C-30.43 54.79, -148.88 270.05, -178.89 323.68 M1.23 0.07 C-28.66 53.85, -149.57 268.03, -179.51 321.96" stroke="#1e1e1e" stroke-width="2" fill="none"></path></g><g transform="translate(479.2804951218061 705) rotate(0 -89.14176709983087 161.87841824697819)"><path d="M-174.68 292.35 C-175.01 301.91, -176.36 307.41, -179.51 321.96 M-174.68 292.35 C-175.36 299.65, -177.4 308.98, -179.51 321.96" stroke="#1e1e1e" stroke-width="2" fill="none"></path></g><g transform="translate(479.2804951218061 705) rotate(0 -89.14176709983087 161.87841824697819)"><path d="M-156.78 302.38 C-162.21 308.95, -168.72 311.57, -179.51 321.96 M-156.78 302.38 C-162.14 306.88, -168.96 313.53, -179.51 321.96" stroke="#1e1e1e" stroke-width="2" fill="none"></path></g></g><mask></mask><g stroke-linecap="round"><g transform="translate(460.56103515625 225.07409265701438) rotate(0 -112.00452591868378 366.3403821655141)"><path d="M0.63 0.76 C-5.48 2.98, 0.27 -115.6, -37.28 14.02 C-74.82 143.65, -193.75 651.07, -224.64 778.53 M-0.5 0.12 C-6.2 2.44, 1.77 -114.53, -35.19 15.35 C-72.15 145.23, -191.17 652.02, -222.28 779.38" stroke="#1e1e1e" stroke-width="2" fill="none"></path></g><g transform="translate(460.56103515625 225.07409265701438) rotate(0 -112.00452591868378 366.3403821655141)"><path d="M-225.68 749.57 C-223.39 754.93, -224.49 762.58, -222.28 779.38 M-225.68 749.57 C-224.56 757.18, -223.54 762.89, -222.28 779.38" stroke="#1e1e1e" stroke-width="2" fill="none"></path></g><g transform="translate(460.56103515625 225.07409265701438) rotate(0 -112.00452591868378 366.3403821655141)"><path d="M-205.73 754.36 C-208.39 758.64, -214.41 765.1, -222.28 779.38 M-205.73 754.36 C-209.14 760.78, -212.62 765.41, -222.28 779.38" stroke="#1e1e1e" stroke-width="2" fill="none"></path></g></g><mask></mask><g stroke-linecap="round"><g transform="translate(366.11435458549727 230.75) rotate(0 -72.87781511031096 386.1320432284157)"><path d="M-1.19 -0.4 C-25.65 128.28, -122.33 643.94, -146.15 772.85 M0.39 -1.66 C-23.76 127.08, -119.85 644.64, -143.97 773.92" stroke="#1e1e1e" stroke-width="2" fill="none"></path></g><g transform="translate(366.11435458549727 230.75) rotate(0 -72.87781511031096 386.1320432284157)"><path d="M-148.9 744.33 C-147.64 753.12, -146.73 766.96, -143.97 773.92 M-148.9 744.33 C-147.31 751.39, -145.48 759.28, -143.97 773.92" stroke="#1e1e1e" stroke-width="2" fill="none"></path></g><g transform="translate(366.11435458549727 230.75) rotate(0 -72.87781511031096 386.1320432284157)"><path d="M-128.72 748.08 C-134.6 755.35, -140.8 767.87, -143.97 773.92 M-128.72 748.08 C-132.07 754.4, -135.17 761.37, -143.97 773.92" stroke="#1e1e1e" stroke-width="2" fill="none"></path></g></g><mask></mask><g stroke-linecap="round"><g transform="translate(233.7210381478435 230.75) rotate(0 -42.96377870700496 386.6878605525157)"><path d="M-1.01 -0.9 C-15.18 128.02, -71.83 643.8, -86.18 773.08 M0.66 1.25 C-13.47 130.34, -71.84 645.64, -86.58 774.27" stroke="#1e1e1e" stroke-width="2" fill="none"></path></g><g transform="translate(233.7210381478435 230.75) rotate(0 -42.96377870700496 386.6878605525157)"><path d="M-93.59 745.1 C-93.77 752.75, -91.98 757.1, -86.58 774.27 M-93.59 745.1 C-89.79 756.94, -87.41 767.53, -86.58 774.27" stroke="#1e1e1e" stroke-width="2" fill="none"></path></g><g transform="translate(233.7210381478435 230.75) rotate(0 -42.96377870700496 386.6878605525157)"><path d="M-73.2 747.42 C-77.48 754.43, -79.79 758.31, -86.58 774.27 M-73.2 747.42 C-77.31 758.33, -82.83 768.02, -86.58 774.27" stroke="#1e1e1e" stroke-width="2" fill="none"></path></g></g><mask></mask><g stroke-linecap="round"><g transform="translate(101.9628944169819 230.75) rotate(0 24.42718650140685 386.95754461754694)"><path d="M0.44 -0.29 C8.65 128.81, 40.72 645.21, 48.81 774.2 M0.05 0.68 C8.23 129.68, 40.32 644.61, 48.43 773.53" stroke="#1e1e1e" stroke-width="2" fill="none"></path></g><g transform="translate(101.9628944169819 230.75) rotate(0 24.42718650140685 386.95754461754694)"><path d="M36.43 746.03 C38.4 752.01, 42.33 758.17, 48.43 773.53 M36.43 746.03 C40.3 753.8, 43.31 761.62, 48.43 773.53" stroke="#1e1e1e" stroke-width="2" fill="none"></path></g><g transform="translate(101.9628944169819 230.75) rotate(0 24.42718650140685 386.95754461754694)"><path d="M56.91 744.75 C54.46 751.08, 53.98 757.53, 48.43 773.53 M56.91 744.75 C54.92 752.94, 52.05 761.12, 48.43 773.53" stroke="#1e1e1e" stroke-width="2" fill="none"></path></g></g><mask></mask><g stroke-linecap="round"><g transform="translate(700.951416015625 612.1328060293226) rotate(0 237.2192217526561 -11.483125008362606)"><path d="M0.02 0.19 C79.1 -3.64, 395.54 -19.29, 474.67 -23.16 M-0.23 0.1 C78.81 -3.69, 395.37 -18.98, 474.54 -22.89" stroke="#1e1e1e" stroke-width="2" fill="none"></path></g><g transform="translate(700.951416015625 612.1328060293226) rotate(0 237.2192217526561 -11.483125008362606)"><path d="M446.88 -11.27 C457.94 -15.61, 468.18 -19.83, 474.54 -22.89 M446.88 -11.27 C456.55 -15.43, 466.28 -19.43, 474.54 -22.89" stroke="#1e1e1e" stroke-width="2" fill="none"></path></g><g transform="translate(700.951416015625 612.1328060293226) rotate(0 237.2192217526561 -11.483125008362606)"><path d="M445.88 -31.77 C457.3 -28.2, 467.92 -24.51, 474.54 -22.89 M445.88 -31.77 C455.93 -28.7, 466.01 -25.49, 474.54 -22.89" stroke="#1e1e1e" stroke-width="2" fill="none"></path></g></g><mask></mask><g stroke-linecap="round"><g transform="translate(579.748046875 262.8577607830053) rotate(0 298.082407933725 39.89656765959907)"><path d="M0.42 -0.16 C99.9 13.18, 497.62 67.68, 596.98 81.08 M-0.81 -1.29 C98.6 12.22, 497.14 65.5, 596.65 79.29" stroke="#1e1e1e" stroke-width="2" fill="none"></path></g><g transform="translate(579.748046875 262.8577607830053) rotate(0 298.082407933725 39.89656765959907)"><path d="M567.33 85.66 C576.1 85.55, 586.5 82.9, 596.65 79.29 M567.33 85.66 C575.27 84.06, 583.35 81.41, 596.65 79.29" stroke="#1e1e1e" stroke-width="2" fill="none"></path></g><g transform="translate(579.748046875 262.8577607830053) rotate(0 298.082407933725 39.89656765959907)"><path d="M570.09 65.33 C578.18 71.53, 587.72 75.19, 596.65 79.29 M570.09 65.33 C577.2 69.42, 584.51 72.48, 596.65 79.29" stroke="#1e1e1e" stroke-width="2" fill="none"></path></g></g><mask></mask><g transform="translate(234.21090698242188 128) rotate(0 128.20986938476562 12.5)"><text x="128.20986938476562" y="0" font-family="Virgil, Segoe UI Emoji" font-size="20px" fill="#1e1e1e" text-anchor="middle" style="white-space: pre;" direction="ltr" dominant-baseline="text-before-edge">Kubewarden Policy Servers</text></g><g transform="translate(181.59415435791016 153) rotate(0 122.77986907958984 12.5)"><text x="122.77986907958984" y="0" font-family="Virgil, Segoe UI Emoji" font-size="20px" fill="#1e1e1e" text-anchor="middle" style="white-space: pre;" direction="ltr" dominant-baseline="text-before-edge">Kubewarden Policy Server</text></g><g transform="translate(429.87467193603516 559.5) rotate(0 122.77986907958984 12.5)"><text x="122.77986907958984" y="0" font-family="Virgil, Segoe UI Emoji" font-size="20px" fill="#1e1e1e" text-anchor="middle" style="white-space: pre;" direction="ltr" dominant-baseline="text-before-edge">Kubewarden Policy Server</text></g><g transform="translate(1541.1041564941406 287.5) rotate(0 53.349945068359375 12.5)"><text x="53.349945068359375" y="0" font-family="Virgil, Segoe UI Emoji" font-size="20px" fill="#1e1e1e" text-anchor="middle" style="white-space: pre;" direction="ltr" dominant-baseline="text-before-edge">Kubernetes</text></g><g transform="translate(1868.726707458496 548.5) rotate(0 56.339942932128906 12.5)"><text x="56.339942932128906" y="0" font-family="Virgil, Segoe UI Emoji" font-size="20px" fill="#1e1e1e" text-anchor="middle" style="white-space: pre;" direction="ltr" dominant-baseline="text-before-edge">K8S Planes</text></g><g transform="translate(1383.8373413085938 312.5) rotate(0 112.81988525390625 12.5)"><text x="112.81988525390625" y="0" font-family="Virgil, Segoe UI Emoji" font-size="20px" fill="#1e1e1e" text-anchor="middle" style="white-space: pre;" direction="ltr" dominant-baseline="text-before-edge">Kubernetes API Server</text></g><g transform="translate(843.7732238769531 419.5) rotate(0 107.41989135742188 12.5)"><text x="107.41989135742188" y="0" font-family="Virgil, Segoe UI Emoji" font-size="20px" fill="#1e1e1e" text-anchor="middle" style="white-space: pre;" direction="ltr" dominant-baseline="text-before-edge">Kubewarden Controller</text></g><g transform="translate(1558.3726501464844 341.5) rotate(0 57.529937744140625 12.5)"><text x="57.529937744140625" y="0" font-family="Virgil, Segoe UI Emoji" font-size="20px" fill="#1e1e1e" text-anchor="middle" style="white-space: pre;" direction="ltr" dominant-baseline="text-before-edge">PolicyServer</text></g><g transform="translate(1243.5817184448242 341.5) rotate(0 106.30988311767578 12.5)"><text x="106.30988311767578" y="0" font-family="Virgil, Segoe UI Emoji" font-size="20px" fill="#1e1e1e" text-anchor="middle" style="white-space: pre;" direction="ltr" dominant-baseline="text-before-edge">ClusterAdmissionPolicy</text></g><g transform="translate(1539.9627075195312 634) rotate(0 105.93988037109375 12.5)"><text x="105.93988037109375" y="0" font-family="Virgil, Segoe UI Emoji" font-size="20px" fill="#1e1e1e" text-anchor="middle" style="white-space: pre;" direction="ltr" dominant-baseline="text-before-edge">webhook Configuration</text></g><g transform="translate(1890.2966842651367 587.5) rotate(0 34.76996612548828 12.5)"><text x="34.76996612548828" y="0" font-family="Virgil, Segoe UI Emoji" font-size="20px" fill="#1e1e1e" text-anchor="middle" style="white-space: pre;" direction="ltr" dominant-baseline="text-before-edge">Control</text></g><g transform="translate(1898.2766799926758 680.5) rotate(0 26.78997039794922 12.5)"><text x="26.78997039794922" y="0" font-family="Virgil, Segoe UI Emoji" font-size="20px" fill="#1e1e1e" text-anchor="middle" style="white-space: pre;" direction="ltr" dominant-baseline="text-before-edge">Data</text></g><g transform="translate(1491.3726501464844 166.75) rotate(0 57.529937744140625 12.5)"><text x="57.529937744140625" y="0" font-family="Virgil, Segoe UI Emoji" font-size="20px" fill="#1e1e1e" text-anchor="middle" style="white-space: pre;" direction="ltr" dominant-baseline="text-before-edge">PolicyServer</text></g><g transform="translate(966.5817184448242 20.25) rotate(0 106.30988311767578 25)"><text x="106.30988311767578" y="0" font-family="Virgil, Segoe UI Emoji" font-size="20px" fill="#1e1e1e" text-anchor="middle" style="white-space: pre;" direction="ltr" dominant-baseline="text-before-edge">ClusterAdmissionPolicy</text><text x="106.30988311767578" y="25" font-family="Virgil, Segoe UI Emoji" font-size="20px" fill="#1e1e1e" text-anchor="middle" style="white-space: pre;" direction="ltr" dominant-baseline="text-before-edge">(1....n)</text></g><g transform="translate(155.79759979248047 1035.4701994331663) rotate(0 63.66992950439453 12.5)"><text x="63.66992950439453" y="0" font-family="Virgil, Segoe UI Emoji" font-size="20px" fill="#1e1e1e" text-anchor="middle" style="white-space: pre;" direction="ltr" dominant-baseline="text-before-edge">OCI Registry</text></g><g transform="translate(592.0680770874023 670) rotate(0 26.679969787597656 12.5)"><text x="26.679969787597656" y="0" font-family="Virgil, Segoe UI Emoji" font-size="20px" fill="#1e1e1e" text-anchor="middle" style="white-space: pre;" direction="ltr" dominant-baseline="text-before-edge">Policy</text></g><g transform="translate(459.88106536865234 670) rotate(0 26.679969787597656 12.5)"><text x="26.679969787597656" y="0" font-family="Virgil, Segoe UI Emoji" font-size="20px" fill="#1e1e1e" text-anchor="middle" style="white-space: pre;" direction="ltr" dominant-baseline="text-before-edge">Policy</text></g><g transform="translate(475.97457122802734 195.75) rotate(0 26.679969787597656 12.5)"><text x="26.679969787597656" y="0" font-family="Virgil, Segoe UI Emoji" font-size="20px" fill="#1e1e1e" text-anchor="middle" style="white-space: pre;" direction="ltr" dominant-baseline="text-before-edge">Policy</text></g><g transform="translate(343.78755950927734 195.75) rotate(0 26.679969787597656 12.5)"><text x="26.679969787597656" y="0" font-family="Virgil, Segoe UI Emoji" font-size="20px" fill="#1e1e1e" text-anchor="middle" style="white-space: pre;" direction="ltr" dominant-baseline="text-before-edge">Policy</text></g><g transform="translate(211.60054779052734 195.75) rotate(0 26.679969787597656 12.5)"><text x="26.679969787597656" y="0" font-family="Virgil, Segoe UI Emoji" font-size="20px" fill="#1e1e1e" text-anchor="middle" style="white-space: pre;" direction="ltr" dominant-baseline="text-before-edge">Policy</text></g><g transform="translate(79.41353607177734 195.75) rotate(0 26.679969787597656 12.5)"><text x="26.679969787597656" y="0" font-family="Virgil, Segoe UI Emoji" font-size="20px" fill="#1e1e1e" text-anchor="middle" style="white-space: pre;" direction="ltr" dominant-baseline="text-before-edge">Policy</text></g></svg>