<?xml version="1.0" encoding="us-ascii" standalone="no"?><svg xmlns="http://www.w3.org/2000/svg" xmlns:xlink="http://www.w3.org/1999/xlink" contentStyleType="text/css" height="274px" preserveAspectRatio="none" style="width:451px;height:274px;background:#FFFFFF;" version="1.1" viewBox="0 0 451 274" width="451px" zoomAndPan="magnify"><defs/><g><!--entity rel.1.0.0--><g id="elem_rel.1.0.0"><rect fill="#F1F1F1" height="36.4063" rx="12.5" ry="12.5" style="stroke:#181818;stroke-width:0.5;" width="50" x="7" y="7"/><text fill="#000000" font-family="sans-serif" font-size="14" lengthAdjust="spacing" textLength="30" x="17" y="29.9883">1.0.0</text></g><!--entity rel.1.0.1--><g id="elem_rel.1.0.1"><rect fill="#F1F1F1" height="36.4063" rx="12.5" ry="12.5" style="stroke:#181818;stroke-width:0.5;" width="50" x="92" y="7"/><text fill="#000000" font-family="sans-serif" font-size="14" lengthAdjust="spacing" textLength="30" x="102" y="29.9883">1.0.1</text></g><!--entity rel.1.0.2--><g id="elem_rel.1.0.2"><rect fill="#F1F1F1" height="36.4063" rx="12.5" ry="12.5" style="stroke:#181818;stroke-width:0.5;" width="50" x="177" y="7"/><text fill="#000000" font-family="sans-serif" font-size="14" lengthAdjust="spacing" textLength="30" x="187" y="29.9883">1.0.2</text></g><!--entity rel.1.0.3--><g id="elem_rel.1.0.3"><rect fill="#F1F1F1" height="36.4063" rx="12.5" ry="12.5" style="stroke:#181818;stroke-width:0.5;" width="50" x="262" y="7"/><text fill="#000000" font-family="sans-serif" font-size="14" lengthAdjust="spacing" textLength="30" x="272" y="29.9883">1.0.3</text></g><!--entity rel.1.1.0--><g id="elem_rel.1.1.0"><rect fill="#F1F1F1" height="36.4063" rx="12.5" ry="12.5" style="stroke:#181818;stroke-width:0.5;" width="50" x="347" y="7"/><text fill="#000000" font-family="sans-serif" font-size="14" lengthAdjust="spacing" textLength="30" x="357" y="29.9883">1.1.0</text></g><!--entity rel.1.1.1--><g id="elem_rel.1.1.1"><rect fill="#F1F1F1" height="36.4063" rx="12.5" ry="12.5" style="stroke:#181818;stroke-width:0.5;" width="50" x="262" y="104"/><text fill="#000000" font-family="sans-serif" font-size="14" lengthAdjust="spacing" textLength="30" x="272" y="126.9883">1.1.1</text></g><!--entity rel.1.1.2--><g id="elem_rel.1.1.2"><rect fill="#F1F1F1" height="36.4063" rx="12.5" ry="12.5" style="stroke:#181818;stroke-width:0.5;" width="50" x="347" y="104"/><text fill="#000000" font-family="sans-serif" font-size="14" lengthAdjust="spacing" textLength="30" x="357" y="126.9883">1.1.2</text></g><!--entity rel.1.2.0--><g id="elem_rel.1.2.0"><rect fill="#F1F1F1" height="36.4063" rx="12.5" ry="12.5" style="stroke:#181818;stroke-width:0.5;" width="50" x="298" y="232"/><text fill="#000000" font-family="sans-serif" font-size="14" lengthAdjust="spacing" textLength="30" x="308" y="254.9883">1.2.0</text></g><!--entity rel.1.2.1--><g id="elem_rel.1.2.1"><rect fill="#F1F1F1" height="36.4063" rx="12.5" ry="12.5" style="stroke:#181818;stroke-width:0.5;" width="50" x="395" y="232"/><text fill="#000000" font-family="sans-serif" font-size="14" lengthAdjust="spacing" textLength="30" x="405" y="254.9883">1.2.1</text></g><!--link rel.1.0.0 to rel.1.0.1--><g id="link_rel.1.0.0_rel.1.0.1"><path d="M57.23,25 C67.04,25 76.85,25 86.66,25 " fill="none" id="rel.1.0.0-to-rel.1.0.1" style="stroke:#181818;stroke-width:1.0;"/><polygon fill="#181818" points="91.79,25,82.79,21,86.79,25,82.79,29,91.79,25" style="stroke:#181818;stroke-width:1.0;"/></g><!--link rel.1.0.1 to rel.1.0.2--><g id="link_rel.1.0.1_rel.1.0.2"><path d="M142.23,25 C152.04,25 161.85,25 171.66,25 " fill="none" id="rel.1.0.1-to-rel.1.0.2" style="stroke:#181818;stroke-width:1.0;"/><polygon fill="#181818" points="176.79,25,167.79,21,171.79,25,167.79,29,176.79,25" style="stroke:#181818;stroke-width:1.0;"/></g><!--link rel.1.0.2 to rel.1.0.3--><g id="link_rel.1.0.2_rel.1.0.3"><path d="M227.23,25 C237.04,25 246.85,25 256.66,25 " fill="none" id="rel.1.0.2-to-rel.1.0.3" style="stroke:#181818;stroke-width:1.0;"/><polygon fill="#181818" points="261.79,25,252.79,21,256.79,25,252.79,29,261.79,25" style="stroke:#181818;stroke-width:1.0;"/></g><!--link rel.1.0.3 to rel.1.1.0--><g id="link_rel.1.0.3_rel.1.1.0"><path d="M312.23,25 C322.04,25 331.85,25 341.66,25 " fill="none" id="rel.1.0.3-to-rel.1.1.0" style="stroke:#181818;stroke-width:1.0;"/><polygon fill="#181818" points="346.79,25,337.79,21,341.79,25,337.79,29,346.79,25" style="stroke:#181818;stroke-width:1.0;"/></g><!--link rel.1.0.3 to rel.1.1.1--><g id="link_rel.1.0.3_rel.1.1.1"><path d="M287,43.42 C287,58.96 287,81.78 287,98.66 " fill="none" id="rel.1.0.3-to-rel.1.1.1" style="stroke:#181818;stroke-width:1.0;"/><polygon fill="#181818" points="287,103.69,291,94.69,287,98.69,283,94.69,287,103.69" style="stroke:#181818;stroke-width:1.0;"/></g><!--link rel.1.1.0 to rel.1.1.1--><g id="link_rel.1.1.0_rel.1.1.1"><path d="M356.41,43.42 C342.15,59.36 321.03,82.97 305.83,99.95 " fill="none" id="rel.1.1.0-to-rel.1.1.1" style="stroke:#181818;stroke-width:1.0;"/><polygon fill="#181818" points="302.49,103.69,311.4762,99.6591,305.8277,99.9672,305.5196,94.3187,302.49,103.69" style="stroke:#181818;stroke-width:1.0;"/></g><!--link rel.1.1.0 to rel.1.1.2--><g id="link_rel.1.1.0_rel.1.1.2"><path d="M372,43.42 C372,58.96 372,81.78 372,98.66 " fill="none" id="rel.1.1.0-to-rel.1.1.2" style="stroke:#181818;stroke-width:1.0;"/><polygon fill="#181818" points="372,103.69,376,94.69,372,98.69,368,94.69,372,103.69" style="stroke:#181818;stroke-width:1.0;"/></g><!--link rel.1.1.1 to rel.1.1.2--><g id="link_rel.1.1.1_rel.1.1.2"><path d="M312.23,122 C322.04,122 331.85,122 341.66,122 " fill="none" id="rel.1.1.1-to-rel.1.1.2" style="stroke:#181818;stroke-width:1.0;"/><polygon fill="#181818" points="346.79,122,337.79,118,341.79,122,337.79,126,346.79,122" style="stroke:#181818;stroke-width:1.0;"/></g><!--link rel.1.1.2 to rel.1.2.0--><g id="link_rel.1.1.2_rel.1.2.0"><path d="M346.77,134.89 C333.19,142.77 317.69,154.52 310,170 C301.15,187.82 306.26,210.42 312.49,226.88 " fill="none" id="rel.1.1.2-to-rel.1.2.0" style="stroke:#FF0000;stroke-width:1.0;stroke-dasharray:1.0,3.0;"/><polygon fill="#FF0000" points="314.45,231.78,314.8475,221.9392,312.6054,227.1327,307.4118,224.8906,314.45,231.78" style="stroke:#FF0000;stroke-width:1.0;"/><text fill="#FF0000" font-family="sans-serif" font-size="13" lengthAdjust="spacing" textLength="21" x="343" y="183.0605">Not</text><text fill="#FF0000" font-family="sans-serif" font-size="13" lengthAdjust="spacing" textLength="85" x="311" y="198.2949">recommended</text></g><!--link rel.1.2.0 to rel.1.2.1--><g id="link_rel.1.2.0_rel.1.2.1"><path d="M348.01,250 C361.95,250 375.89,250 389.83,250 " fill="none" id="rel.1.2.0-to-rel.1.2.1" style="stroke:#181818;stroke-width:1.0;"/><polygon fill="#181818" points="394.97,250,385.97,246,389.97,250,385.97,254,394.97,250" style="stroke:#181818;stroke-width:1.0;"/></g><!--link rel.1.1.2 to rel.1.2.1--><g id="link_rel.1.1.2_rel.1.2.1"><path d="M386.77,140.24 C393.3,148.7 400.5,159.35 405,170 C412.67,188.14 416.44,210.27 418.28,226.49 " fill="none" id="rel.1.1.2-to-rel.1.2.1" style="stroke:#181818;stroke-width:1.0;"/><polygon fill="#181818" points="418.83,231.75,421.8827,222.3862,418.3155,226.7765,413.9251,223.2094,418.83,231.75" style="stroke:#181818;stroke-width:1.0;"/></g><!--SRC=[VP112i8m44NtdcAeQuCpmKs57i4Jk0dD8CKsaJI2npULqcPiT3UJzvd_ym40ndld7YQO0O9_Ejlwu3W0dNQ9GU0s6dVh6IfKHtMim8pfiLUVhIH18S6IX8I4IX8j97ehGP45IrbGPC5I5XHPi9I5X16LZ4WOqM8qjmI7PjF7lEM81A8SQO7qYjP_BoXZkHbEEVwnPbF2BFoDABkOYe5ztpbMriV8zZpDTKX3v5US1gZXukFLfUhyCB2pRBDhb6UWhtWaq1i0]--></g></svg>