<svg xmlns="http://www.w3.org/2000/svg" width="210.6" height="38.09" viewBox="0 0 210.6 38.09">
    <g transform="translate(-30 -28.7)">
        <path d="M238.46 55.73h-13.55a1.9 1.9 0 0 1-1.9-1.9v-6.85h13.09a2.04 2.04 0 1 0 0-4.07H223v-6.74c0-1.05.85-1.9 1.9-1.9h13.55a2.14 2.14 0 1 0 0-4.27H224.9a6.18 6.18 0 0 0-6.17 6.17v17.66c0 3.4 2.77 6.17 6.17 6.17h13.55a2.14 2.14 0 1 0 0-4.27M198.6 42.97c-2.86-.52-4.86-1.13-5.97-1.84a3.26 3.26 0 0 1-1.68-2.87c0-1.3.58-2.36 1.72-3.2 1.15-.82 2.76-1.24 4.85-1.24 2.1 0 3.8.41 5.06 1.23a7.5 7.5 0 0 1 1.87 1.75 2.32 2.32 0 1 0 3.56-2.96 12.05 12.05 0 0 0-3.5-2.73c-1.95-1-4.3-1.5-7.04-1.5-2.35 0-4.41.41-6.18 1.23a9.56 9.56 0 0 0-4.05 3.3 8.08 8.08 0 0 0-1.4 4.62c0 1.6.37 2.95 1.1 4.07a8.26 8.26 0 0 0 3.56 2.8c1.63.76 3.82 1.4 6.56 1.9 2.75.52 4.67 1.1 5.77 1.77 1.1.67 1.65 1.54 1.65 2.62 0 1.36-.6 2.41-1.83 3.15-1.22.74-2.9 1.11-5.04 1.11a11.5 11.5 0 0 1-5.68-1.27 8.62 8.62 0 0 1-2.34-1.92 2.3 2.3 0 0 0-3.37-.09v.01a2.3 2.3 0 0 0-.12 3.16c2.58 2.88 6.43 4.32 11.55 4.32 2.35 0 4.43-.36 6.22-1.07a9.38 9.38 0 0 0 4.19-3.05c1-1.33 1.5-2.87 1.5-4.62 0-1.62-.37-2.99-1.1-4.1A8.08 8.08 0 0 0 205 44.8a26.63 26.63 0 0 0-6.4-1.83m-66.83 0c-2.87-.51-4.86-1.12-5.97-1.83a3.26 3.26 0 0 1-1.68-2.87c0-1.3.58-2.36 1.72-3.2 1.15-.82 2.76-1.24 4.84-1.24 2.11 0 3.8.41 5.07 1.22.69.44 1.3 1.03 1.87 1.76a2.32 2.32 0 1 0 3.56-2.96 12.05 12.05 0 0 0-3.5-2.73c-1.95-1-4.3-1.5-7.04-1.5-2.35 0-4.41.41-6.18 1.23a9.56 9.56 0 0 0-4.05 3.3 8.08 8.08 0 0 0-1.4 4.62c0 1.6.37 2.95 1.1 4.07a8.27 8.27 0 0 0 3.56 2.8 28.4 28.4 0 0 0 6.56 1.9c2.75.52 4.67 1.1 5.77 1.77 1.1.66 1.65 1.54 1.65 2.62 0 1.36-.6 2.41-1.83 3.15-1.22.74-2.9 1.1-5.04 1.1-2.27 0-4.16-.41-5.69-1.26a8.57 8.57 0 0 1-2.33-1.92 2.3 2.3 0 0 0-3.37-.09 2.3 2.3 0 0 0-.12 3.16c2.58 2.89 6.43 4.33 11.55 4.33 2.35 0 4.43-.36 6.22-1.07a9.39 9.39 0 0 0 4.19-3.05c1-1.33 1.5-2.87 1.5-4.62 0-1.63-.37-3-1.1-4.1a8.08 8.08 0 0 0-3.46-2.75 26.62 26.62 0 0 0-6.4-1.84m44.57-10.91v16.43c0 3.92-1.04 6.88-3.12 8.89-2.08 2-5.11 3-9.1 3-3.98 0-7.01-1-9.1-3-2.07-2-3.11-4.97-3.11-8.9V32.07a2.44 2.44 0 1 1 4.88 0V47.9c0 2.83.6 4.92 1.8 6.27 1.18 1.34 3.03 2.01 5.54 2.01 2.5 0 4.35-.67 5.54-2.01 1.19-1.35 1.79-3.44 1.79-6.27V32.06a2.44 2.44 0 0 1 4.88 0" fill="#0c322c"/>
        <path d="M101.4 42.16a1.23 1.23 0 0 1-1.54-1.9 1.2 1.2 0 0 1 1.74 0c.54.54.47 1.46-.2 1.9m1.94-2.69a4.55 4.55 0 1 1-8.85 2.08 4.55 4.55 0 0 1 8.85-2.08m-22.1 17.66c.37.54.68 1.06.85 1.59.13.37.29.85.65 1.05l.06.03c.67.24 2.4.2 2.4.2h3.16c.27 0 2.66 0 2.6-.27-.3-1.27-1.76-1.5-2.88-2.17-1.04-.61-2.02-1.31-2.46-2.51-.23-.62-.1-2.05.3-2.57.3-.38.72-.63 1.18-.73.52-.1 1.05-.01 1.56.04.63.06 1.25.18 1.88.25 1.2.16 2.43.22 3.65.2a20.2 20.2 0 0 0 5.96-1.04 13.58 13.58 0 0 0 3.78-1.9c1.29-.95.95-.86-.36-.73-1.56.16-3.14.18-4.71.1a10.37 10.37 0 0 1-4.24-.95 10.38 10.38 0 0 1-2.77-1.91.57.57 0 0 1 .02-.73c.22-.23.7-.1.83.03 1.45 1.2 3.6 2.2 5.83 2.3 1.2.06 2.38.09 3.59.03.6-.02 1.51-.02 2.12-.03.3 0 1.16.09 1.32-.24.05-.1.04-.2.04-.32-.18-4.82-.54-10.26-5.59-12.57-3.76-1.72-9.41-4.4-11.8-5.5a.85.85 0 0 0-1.2.77c0 1.61.08 3.93.08 6.03-1.14-1.16-3.06-1.9-4.53-2.57a42.97 42.97 0 0 0-5.14-1.96 54.99 54.99 0 0 0-10.83-2.12 41.48 41.48 0 0 0-12.49.63 38.57 38.57 0 0 0-18.4 9.38c-3.1 2.91-5.51 7.06-5.68 11.26-.23 5.94 1.43 9.13 4.5 12.42 4.87 5.24 15.38 5.98 19.63-.24 1.91-2.8 2.33-6.6.94-9.69a9.33 9.33 0 0 0-7.97-5.43c-2.62-.1-5.42 1.24-6.43 3.67a5.3 5.3 0 0 0 1.07 5.59c.54.56 1.28 1.02 2.09.84.47-.1.87-.46.94-.94.1-.71-.52-1.17-.9-1.72a2.63 2.63 0 0 1 .32-3.3c.73-.7 1.8-.92 2.82-.91.95 0 1.92.17 2.73.64a4.83 4.83 0 0 1 2.17 3.22c.8 3.9-2.38 7.07-6.68 7.32a8.96 8.96 0 0 1-6.16-1.83c-4.35-3.5-5.42-10.65-.45-14.47 4.72-3.63 10.68-2.7 14.2-.8 2.81 1.5 4.9 3.97 6.5 6.7a39 39 0 0 1 2.1 4.25c.6 1.4 1.17 2.8 2.39 3.83.8.68 1.8.66 2.84.66h6c.82 0 .62-.54.27-.9-.8-.82-1.94-1-3-1.3-2.42-.66-2.17-3.86-1.5-3.86 2.16 0 2.23.06 4.13.04 2.73-.04 3.56-.2 5.7.6a7.12 7.12 0 0 1 2.96 2.56" fill="#30ba78"/>
    </g>
</svg>

